<?xml version="1.0" encoding="utf-8"?>
<!DOCTYPE svg PUBLIC "-//W3C//DTD SVG 1.0//EN" "http://www.w3.org/TR/2001/REC-SVG-20010904/DTD/svg10.dtd">
<svg version="1.0" xmlns="http://www.w3.org/2000/svg" width="1024px" height="1024px" viewBox="0 0 1024 1024" preserveAspectRatio="xMidYMid meet">
 <g fill="#00002c">
  <path d="M0 512 l0 -512 512 0 512 0 0 512 0 512 -512 0 -512 0 0 -512z m348.50 231.50 c3.90 -0.95 6.30 -1.70 6.75 -2.10 0.25 -0.20 0.75 -0.40 1.10 -0.40 0.95 0 8.35 -5.70 10.10 -7.85 2.10 -2.50 4.45 -7.45 5.05 -10.55 1.30 -6.90 -2.50 -15 -9.60 -20.35 -1.75 -1.35 -8.65 -5.10 -15.65 -8.50 -10.95 -5.40 -12.95 -6.55 -15.95 -9.30 -4.35 -4 -5.25 -5.95 -5.30 -11.10 0 -4.40 0.85 -6.60 3.60 -9.35 2.90 -2.95 5.30 -3.60 13.15 -3.70 6.20 -0.05 7.30 0.10 9.75 1.05 3.95 1.60 8.75 5.85 12.85 11.40 l1.10 1.50 0.05 -6.30 0 -6.25 -3.35 -0.85 c-17 -4.25 -28.70 -3.05 -37.10 3.70 -3.40 2.70 -7.30 8.55 -8.10 12.15 -1.35 6.05 0.70 12.20 5.90 17.80 3.65 4 7.85 6.65 17.15 11 10.45 4.90 14 7.05 17.20 10.55 3.40 3.65 3.95 5.35 3.70 11.15 -0.15 3.90 -0.40 4.95 -1.55 6.90 -2.85 4.85 -7.40 7.20 -14.85 7.70 -5.20 0.35 -9.55 -0.30 -13.20 -2.05 -3.55 -1.70 -10.05 -7.75 -13.65 -12.85 -1.55 -2.15 -2.90 -3.80 -3 -3.70 -0.10 0.10 0.35 3.65 1.10 7.85 0.70 4.20 1.25 7.85 1.25 8.10 0 1.05 10.80 4 17.70 4.80 3.90 0.50 11.05 0.25 13.80 -0.45z m67.60 0.25 c4.15 -0.85 10.20 -3.70 12.10 -5.70 l1.40 -1.45 -1.90 0.45 c-1.10 0.20 -3.65 0.45 -5.75 0.45 -6.85 0 -11.35 -2.35 -13.80 -7.40 -1.60 -3.25 -1.50 -1.15 -1.75 -45.45 l-0.15 -21.65 13.50 -0.10 c12.40 -0.15 13.50 -0.20 13.65 -1 0.15 -0.85 -0.75 -0.90 -13.30 -0.90 l-13.50 0 -0.30 -1.10 c-0.15 -0.65 -0.30 -5.65 -0.35 -11.15 -0.05 -5.50 -0.20 -9.30 -0.40 -8.50 -0.20 0.85 -1.25 3.55 -2.30 6 -2.35 5.40 -4.75 7.95 -12.25 13.05 l-5.10 3.45 3.55 0.15 3.50 0.15 0.15 33.85 0.15 33.85 1.35 2.80 c2.60 5.25 7.15 8.80 13.10 10.25 3.40 0.80 4.45 0.80 8.40 -0.05z m72.35 0.25 c3.10 -0.60 8.85 -3.05 12.40 -5.30 2.85 -1.80 9.15 -7.55 10.75 -9.85 l1.05 -1.45 -2.05 1.35 c-1.10 0.70 -3.65 2 -5.70 2.85 -3.50 1.50 -4.05 1.55 -12.15 1.80 -9.95 0.25 -12.75 -0.30 -18.95 -3.55 -10.50 -5.60 -15.30 -16.75 -15.30 -35.60 l0 -4.75 28.65 0 28.70 0 -0.40 -2.60 c-1.65 -12.15 -7.75 -20.55 -18.65 -25.70 -5.30 -2.50 -10.85 -3.45 -16.40 -2.75 -5.80 0.75 -9.85 2.05 -14.55 4.75 -7.75 4.45 -13.55 10.85 -17.50 19.30 -3.65 7.85 -4.10 10 -4.10 19.75 0 9.15 0.60 12.40 3.55 19.40 3.60 8.50 11.40 16.25 19.85 19.70 6.45 2.65 15.10 3.75 20.80 2.65z m316.75 -0.75 c1.35 -0.70 2.90 -1.25 3.40 -1.25 1.35 0 7.50 -3.20 8.65 -4.50 l1 -1.15 -1.25 0.30 c-5.40 1.25 -12.45 0.70 -16.40 -1.30 -2.85 -1.40 -5.50 -4.05 -6.65 -6.55 -1.10 -2.40 -1.30 -10.20 -0.40 -13.55 0.65 -2.45 4.85 -6.70 8.30 -8.45 6.30 -3.20 9.60 -4.80 10 -4.80 0.25 0 1.60 -0.55 2.95 -1.25 3.25 -1.65 2.65 -1.60 -4.25 0.55 -14.05 4.40 -21.65 8.25 -26.65 13.55 -5.45 5.85 -6.55 12.45 -3.15 19.15 3.45 6.75 9.75 10.35 18.25 10.45 3.05 0.05 4.20 -0.20 6.20 -1.20z m40.30 -0.95 c0.40 -0.35 1.75 -1.15 3 -1.75 1.20 -0.65 2.75 -1.55 3.40 -2.10 l1.25 -0.95 -3.80 0 c-4.55 0 -6 -0.60 -7.50 -2.95 -1.10 -1.80 -1.10 -1.90 -1.35 -30.55 l-0.25 -28.75 -1.55 -3.30 c-4.80 -10.05 -15.05 -14.65 -29.20 -13 -5.55 0.60 -9.60 2.10 -14.30 5.20 -3.20 2.05 -5.70 4.10 -5.70 4.60 0 0.25 1.10 -0.10 3.90 -1.35 2.45 -1.10 12.40 -2.10 17.65 -1.80 5.70 0.30 11.60 3.90 14.10 8.60 1 1.90 1.10 2.90 1.25 12.15 l0.15 10.10 -2.40 0.75 -2.40 0.75 2.65 0 2.60 0.05 0 15.40 c0 16.10 -0.25 18.55 -2.15 19.85 -1.05 0.70 -1 0.75 1 0.75 1.90 0 2.10 0.15 2.40 1.45 0.35 1.65 2.65 4.80 4.35 6 2.30 1.60 4.55 2.05 8.40 1.75 2.05 -0.15 4.10 -0.55 4.50 -0.90z m-625.50 -0.15 c-0.65 -0.15 -2.35 -0.70 -3.75 -1.25 -6.05 -2.40 -7.50 -5.05 -7.15 -13 0.25 -4.65 0.55 -6.05 3.30 -14.15 1.65 -4.95 3.40 -9.85 3.85 -10.85 l0.75 -1.90 22.40 0 22.35 0 4.10 9.90 c2.25 5.40 4.70 11.40 5.40 13.30 1.55 4.10 2.05 8.75 1.30 11.55 -0.65 2.45 -3.10 4.95 -5.80 6 l-2 0.75 3.95 -0.25 c2.15 -0.15 10.85 -0.25 19.25 -0.25 15.25 0 15.30 0 13.25 -0.95 -3.05 -1.40 -6.40 -5.60 -9.90 -12.55 -3.40 -6.65 -11.65 -25.95 -20.80 -48.75 -3.10 -7.70 -8.45 -20.85 -11.85 -29.25 -3.40 -8.40 -7.45 -18.35 -9 -22.10 -1.50 -3.80 -2.90 -6.90 -3.10 -6.90 -0.15 0 -2.25 5.25 -4.65 11.65 -8.45 22.55 -24.50 64.75 -28.70 75.50 -8.25 21.05 -13.50 29.70 -19.85 32.75 l-2.10 1.05 15 -0.05 c8.25 0 14.45 -0.15 13.75 -0.25z m338.30 -0.60 c-1.35 -0.45 -2.95 -1.45 -3.55 -2.20 -2.10 -2.40 -2.30 -5.10 -2.15 -32.15 l0.15 -25.45 1.60 -2.35 1.60 -2.40 -1.70 0 -1.75 0 0 -8.75 c0 -8.50 -0.05 -8.75 -1.05 -8.75 -2.55 0 -17.75 4.40 -21.10 6.10 l-1.90 0.95 3 1.55 c1.70 0.85 3.85 2.35 4.80 3.30 3.20 3.25 3.25 3.60 3.25 34.15 0 18.10 -0.20 28.25 -0.55 30 -0.75 3.40 -2.55 5.35 -5.70 6.20 -2.25 0.60 -0.90 0.70 12.50 0.70 14.80 -0.05 14.95 -0.05 12.55 -0.90z m64.60 0.15 c-2.70 -0.80 -4.65 -2.90 -5.35 -5.60 -0.25 -1 -0.60 -18.60 -0.80 -39.10 -0.15 -20.50 -0.45 -37.35 -0.55 -37.50 -0.75 -0.70 -23.20 6.05 -23.20 7 0 0.20 0.95 0.80 2.10 1.30 3.15 1.40 6.60 4.35 7.70 6.50 0.90 1.85 0.95 3.50 1.10 26.95 0.15 28.85 -0.15 35.30 -1.90 37.75 -0.65 0.90 -1.90 1.95 -2.80 2.30 -0.95 0.40 -1.70 0.80 -1.70 0.95 0 0.15 6.25 0.25 13.90 0.20 12.80 0 13.70 -0.05 11.50 -0.75z m33.95 -0.35 c-1.60 -0.65 -3.10 -1.45 -3.35 -1.85 -0.85 -1.35 -0.60 -7.40 0.35 -8.90 1 -1.55 9.50 -12.80 12.05 -15.95 0.95 -1.20 1.60 -2.15 1.45 -2.15 -0.15 0 -3.40 3.85 -7.20 8.60 -11 13.70 -16.45 19.05 -21.15 20.70 -1.50 0.55 -0.20 0.65 9.50 0.65 l11.25 0 -2.90 -1.10z m97.60 0.65 l7.30 0 -1.90 -1.10 c-1.20 -0.70 -2.25 -1.90 -3 -3.40 l-1.10 -2.25 -0.15 -37.85 c-0.10 -33 -0.25 -37.90 -0.90 -37.90 -2.70 0 -23.70 6.20 -23.70 7 0 0.15 1.05 0.65 2.30 1.20 3.35 1.40 7.15 4.60 8.25 6.95 0.85 2 0.95 3.75 0.95 31.10 0 17.60 -0.20 29.70 -0.50 30.80 -0.60 2.15 -2.75 4.30 -5.30 5.25 -1.85 0.70 -1.60 0.75 4.25 0.45 3.40 -0.15 9.50 -0.25 13.50 -0.25z m-36.60 -1.20 c-1.05 -0.65 -2.45 -1.70 -3.15 -2.35 -1.80 -1.65 -6.90 -8.20 -11.05 -14.20 -1.90 -2.75 -6.60 -9.50 -10.45 -15 -9.15 -13.10 -8.85 -12.55 -8.60 -14.55 0.20 -1.60 0.10 -1.70 -1.35 -1.70 -1.30 0 -1.80 -0.50 -4.10 -3.90 -1.40 -2.10 -4.20 -6.15 -6.15 -9 -5.10 -7.35 -6 -9.25 -6 -12.40 0 -1.45 0.20 -3.20 0.45 -3.90 0.55 -1.30 2.85 -2.60 5.30 -2.95 0.85 -0.10 -6.50 -0.25 -16.20 -0.30 l-17.75 -0.05 2.55 1.25 c4.20 2.10 6.65 4.70 13.70 14.60 17.70 24.85 18.90 26.90 17.45 29.70 -0.50 0.85 -0.35 0.95 1.60 0.95 l2.15 0.05 4.25 6.05 c12.70 18.25 14 20.35 14 23.25 0 2.95 -0.40 3.65 -2.70 4.65 -2.05 0.95 -2 0.95 12.95 0.95 l15 0 -1.90 -1.15z m-17.10 -67.40 c5.30 -6.60 11.45 -11.75 15 -12.55 0.55 -0.15 -3.40 -0.25 -8.75 -0.30 l-9.70 -0.05 2.20 1.15 2.25 1.10 0.15 3.35 c0.15 3.65 -0.95 6.60 -3.65 9.85 -0.75 0.85 -1.20 1.55 -1.05 1.55 0.10 0 1.75 -1.85 3.55 -4.10z m-137.05 -0.85 c4.45 -1.50 10.70 -1.35 14.50 0.35 1.35 0.60 2.60 1 2.75 0.85 0.15 -0.15 0.25 -3.50 0.30 -7.40 l0 -7.10 -1.90 -0.50 c-3.50 -0.85 -8.80 1.70 -13.80 6.75 -2.70 2.70 -8.55 9.75 -8.55 10.25 0 0.20 0.75 -0.20 1.65 -0.85 0.85 -0.65 3.15 -1.75 5.05 -2.35z m49.55 -34.55 c3.25 -2.40 4.25 -3.80 4.55 -6.35 0.65 -5.30 -6.50 -10.50 -11.95 -8.70 -5.25 1.75 -8.70 7.10 -7.05 10.95 1.35 3.25 3.65 5 7.45 5.65 3.65 0.60 4.25 0.45 7 -1.55z m139.15 0.15 c2.40 -1.80 2.95 -2.50 4.15 -5 1 -2.15 1 -2.15 0.05 -4.30 -1.15 -2.65 -2.70 -4.15 -5.35 -5.40 -2.60 -1.20 -4.95 -1.20 -7.55 0.10 -2.80 1.35 -5 3.60 -6 6.25 -0.75 2 -0.75 2.20 0.20 4.40 0.75 1.65 1.70 2.70 3.40 3.80 2.05 1.30 2.85 1.50 5.85 1.50 2.95 0 3.65 -0.20 5.25 -1.35z m-357.05 -88.40 c4.55 -7.95 12.60 -22.05 17.85 -31.25 5.30 -9.20 13.65 -23.85 18.55 -32.50 4.90 -8.65 9.75 -17.15 10.70 -18.80 1 -1.70 2.20 -3.80 2.65 -4.65 l0.85 -1.55 33.30 0 33.25 0 0 1.50 c0 1.40 -4.70 10.10 -17.50 32.25 -3.05 5.35 -11.05 19.35 -17.90 31.50 -2.35 4.15 -5.10 8.95 -6.15 10.75 -1 1.80 -3.95 7 -6.50 11.50 -2.50 4.55 -5.55 9.95 -6.70 12 l-2.10 3.75 29.05 0.15 c16 0.05 29.30 0 29.55 -0.10 0.55 -0.20 1.80 -2.35 19.50 -33.55 5.15 -9.05 10.65 -18.75 12.25 -21.50 1.55 -2.75 5.40 -9.50 8.50 -15 3.10 -5.50 6.80 -12 8.25 -14.50 1.45 -2.45 4.15 -7.20 6 -10.50 1.85 -3.30 3.80 -6.50 4.40 -7.10 l1 -1.15 66 -0.10 66 -0.15 0.95 -1.50 c0.50 -0.80 1.05 -1.85 1.20 -2.25 0.20 -0.40 1.85 -3.35 3.70 -6.50 1.85 -3.15 5.35 -9.35 7.85 -13.75 2.45 -4.40 7.90 -13.95 12 -21.25 4.15 -7.30 10.25 -18.20 13.65 -24.25 3.35 -6.05 6.85 -12.25 7.75 -13.75 0.90 -1.50 4.05 -7 7 -12.25 2.95 -5.20 8.60 -15.10 12.50 -22 3.90 -6.85 9.20 -16.20 11.75 -20.75 2.55 -4.55 6.10 -10.85 7.90 -14 1.80 -3.15 4.20 -7.50 5.40 -9.65 l2.10 -3.85 -5.35 -9.15 c-2.95 -5 -7.45 -12.70 -10 -17.10 -10 -17.30 -15.30 -26.25 -15.55 -26.25 -0.15 0 -0.95 1.30 -1.75 2.90 -0.85 1.55 -4.90 8.80 -8.95 16.10 -4.10 7.30 -8.40 14.95 -9.55 17 -2.45 4.35 -8.55 15 -13.85 24.25 -2.05 3.60 -5.40 9.45 -7.40 13 -2 3.60 -4.90 8.75 -6.50 11.50 -1.55 2.75 -4.20 7.35 -5.85 10.25 -1.65 2.90 -3.45 6.10 -4.05 7.15 -2.05 3.45 -2.95 5.05 -11.70 20.60 -4.85 8.55 -10.40 18.30 -12.40 21.75 -2 3.45 -4.50 7.85 -5.50 9.75 -1.05 1.95 -2.65 4.85 -3.60 6.50 -0.95 1.65 -1.85 3.40 -2.05 3.90 -0.30 0.80 -2.45 0.85 -35.35 0.85 l-35 0 0 -1.45 c0 -0.95 1.80 -4.65 5.05 -10.40 10.90 -19.10 19.95 -35 29.35 -51.65 5.30 -9.40 19.55 -34.60 24.70 -43.65 2.30 -4 2.45 -4.55 1.90 -5.75 -0.30 -0.70 -3.30 -6.15 -6.60 -12.10 -3.30 -5.90 -7.25 -13 -8.80 -15.75 -3.40 -6.10 -13.65 -23.95 -13.90 -24.20 -0.10 -0.10 -0.35 0.25 -0.55 0.75 -0.25 0.50 -1 1.95 -1.70 3.20 -0.75 1.25 -3.05 5.40 -5.20 9.25 -2.15 3.85 -7.55 13.40 -12 21.25 -4.45 7.85 -11.45 20.10 -15.50 27.25 -4.05 7.15 -13 22.90 -19.90 35 -6.85 12.10 -15.75 27.75 -19.75 34.75 -7.25 12.75 -8.05 14.25 -14.90 26.15 -2.05 3.55 -3.70 6.65 -3.70 6.90 0 0.25 -13.15 0.45 -33 0.45 l-33 0 0 -1.75 c0 -0.95 0.60 -2.70 1.40 -4.10 0.80 -1.30 2.25 -3.85 3.20 -5.65 2.85 -5.10 5.45 -9.65 10.10 -17.70 2.35 -4.10 4.30 -7.50 4.30 -7.60 0 -0.05 0.75 -1.45 1.70 -3.05 0.95 -1.60 5.90 -10.30 11.05 -19.40 11.55 -20.25 22.05 -38.65 26.35 -46.05 l3.25 -5.60 -3.40 -6.15 c-15.40 -27.85 -26.75 -47.85 -27.05 -47.55 -0.30 0.35 -1.60 2.60 -6.15 10.60 -1.15 2.05 -6.05 10.60 -10.85 19 -9.90 17.20 -14.15 24.65 -22.75 39.75 -3.30 5.80 -8.65 15.10 -11.90 20.75 -3.25 5.65 -7.35 12.85 -9.15 16 -1.75 3.15 -3.40 6 -3.60 6.25 -0.20 0.30 -1.95 3.30 -3.85 6.75 -1.95 3.45 -4 7.15 -4.65 8.25 -0.60 1.10 -5.10 9 -10 17.50 -12.80 22.35 -23.05 40.40 -25.60 45 -1.25 2.20 -5.35 9.40 -9.15 16 -3.80 6.60 -7.85 13.70 -9 15.75 -2.20 3.95 -12.05 21.20 -22.10 38.75 -3.30 5.80 -7.55 13.30 -9.50 16.75 -1.95 3.45 -5.65 9.95 -8.25 14.50 -3.65 6.35 -15.40 26.80 -16.75 29.15 -0.10 0.20 13.65 0.30 30.60 0.25 l30.85 -0.15 8.25 -14.50z m253.70 7.40 c2.30 -4.10 8.70 -15.45 14.30 -25.25 5.60 -9.80 10.30 -18.20 10.45 -18.60 0.30 -0.70 -2.65 -0.80 -30.60 -0.80 l-30.95 0 -1.05 1.90 c-0.55 1 -2.70 4.80 -4.75 8.35 -2.10 3.60 -4.65 8.10 -5.70 10 -1.05 1.95 -4.75 8.55 -8.25 14.75 -3.50 6.20 -7.05 12.55 -7.90 14.15 l-1.55 2.85 30.90 0 30.95 0 4.15 -7.35z"/>
  <path d="M459 684.90 c0 -4.25 0.95 -9.15 2.45 -12.60 1.25 -2.80 6.85 -8.85 9.35 -10.05 6.05 -2.85 14.85 -2.95 20.25 -0.20 2.95 1.50 6.25 5.55 7.55 9.35 0.95 2.85 1.15 4.35 1.15 10.10 l0 6.75 -20.35 0.15 -20.40 0.10 0 -3.60z"/>
  <path d="M219.15 699.15 c-1.15 -0.45 -0.70 -2.75 1.65 -8.90 1.25 -3.30 4.30 -11.30 6.70 -17.75 2.45 -6.45 5.35 -14.10 6.45 -17 l2 -5.25 2.45 -0.15 c2.80 -0.15 2 -1.35 6.65 9.90 10.40 25.20 14.45 35.85 14.35 37.50 l-0.15 1.75 -19.75 0.10 c-10.85 0.05 -20.05 -0.05 -20.35 -0.20z"/>
 </g>
 <g fill="#817fe8">
  <path d="M322.70 565.90 c-0.15 -0.20 2.85 -5.70 6.60 -12.25 12.70 -22 16.30 -28.35 19.85 -34.65 1.95 -3.45 6.20 -10.95 9.50 -16.75 10.05 -17.55 19.90 -34.80 22.10 -38.75 1.15 -2.05 5.20 -9.15 9 -15.75 3.80 -6.60 7.90 -13.80 9.15 -16 2.20 -3.95 10.45 -18.45 23.25 -40.85 l6.50 -11.40 1.80 0 c1.75 0 1.85 0.10 2.45 2.15 1.25 4.50 2.60 10.55 2.60 11.70 0 0.65 0.35 1.70 0.80 2.40 0.40 0.65 1.45 3.25 2.25 5.80 0.80 2.55 1.65 4.85 1.90 5.15 0.50 0.65 1.85 5.65 2.80 10.40 0.40 1.80 1 3.95 1.40 4.75 0.40 0.75 1 2.35 1.30 3.55 0.35 1.15 0.80 2.10 1.05 2.10 0.30 0 0.50 0.35 0.50 0.80 0 0.45 0.40 1.20 0.95 1.65 0.55 0.50 1.30 2.40 1.80 4.75 0.50 2.15 1.40 4.85 2.05 6 0.65 1.10 1.20 2.60 1.20 3.30 0 0.70 0.35 1.80 0.75 2.50 0.40 0.70 0.70 1.85 0.75 2.55 0 0.75 0.35 1.45 0.75 1.65 0.40 0.15 0.75 0.60 0.75 1.05 0 1 2.40 4.60 3.30 4.95 0.50 0.20 0.70 1.10 0.70 3.05 l0 2.75 -6.50 0 -6.55 0 -0.85 1.55 c-0.45 0.85 -1.65 2.95 -2.65 4.65 -0.95 1.65 -5.80 10.15 -10.70 18.80 -4.90 8.65 -13.25 23.30 -18.55 32.50 -5.25 9.20 -13.25 23.15 -17.70 31 -4.45 7.85 -8.25 14.40 -8.45 14.65 -0.45 0.45 -65.55 0.70 -65.85 0.25z"/>
  <path d="M455.05 561.15 c1.45 -2.70 3 -5.45 3.45 -6.15 0.45 -0.70 1.80 -3.05 3 -5.25 1.20 -2.20 3.90 -7.05 6 -10.75 2.10 -3.70 5.50 -9.60 7.45 -13.10 3 -5.30 3.80 -6.40 4.80 -6.40 0.95 0 1.30 0.50 2.25 3.15 1.15 3.35 2.95 7.35 3.25 7.35 0.10 0 0.05 -4.80 -0.10 -10.70 l-0.30 -10.65 3.75 -6.70 c3.55 -6.40 6.60 -11.75 17.45 -30.70 l4.85 -8.50 -16.10 -0.25 -16.05 -0.25 -0.35 -2.50 c-0.95 -7.15 -1.50 -10 -1.90 -10.15 -0.30 -0.10 -0.50 -1.05 -0.50 -2.15 0 -1.05 -0.20 -1.95 -0.45 -1.95 -0.25 0 -0.60 -1.05 -0.75 -2.35 -0.70 -4.85 -5.90 -26.70 -8.85 -37.20 -0.55 -1.80 -0.95 -4.10 -0.95 -5.10 0 -1 -0.30 -1.85 -0.65 -2 -0.40 -0.15 -1.15 -2.50 -1.80 -5.40 -0.60 -2.85 -1.65 -6.75 -2.30 -8.70 -0.65 -1.90 -2.25 -6.85 -3.50 -11 -1.30 -4.10 -3.65 -11.65 -5.30 -16.75 -1.65 -5.10 -2.95 -9.55 -2.95 -9.85 0 -0.35 -0.25 -0.65 -0.55 -0.65 -0.30 0 0 -0.95 0.65 -2.10 0.70 -1.20 3.65 -6.35 6.60 -11.55 l5.40 -9.35 1.85 0 c2.10 0 2.75 0.75 3.30 3.90 0.15 1.15 0.75 2.60 1.25 3.20 0.45 0.65 1.60 2.60 2.45 4.40 0.90 1.80 2.25 4 3.05 4.95 0.85 0.90 1.50 1.85 1.50 2.10 0 0.20 0.30 0.70 0.65 1.05 0.30 0.35 1.60 2 2.85 3.65 4.55 6.15 17.45 19.75 18.75 19.75 1.35 0 2.25 1.55 2.30 4.10 0.05 1.85 -0.55 3.20 -4.30 9.65 -4.60 7.85 -7.15 12.30 -10.15 17.75 -0.95 1.80 -2.40 4.35 -3.20 5.65 -0.75 1.30 -1.40 2.50 -1.40 2.60 0 0.15 14.20 0.25 31.50 0.25 25.75 0 31.50 -0.10 31.50 -0.65 0 -0.35 0.70 -1.45 1.50 -2.35 0.85 -0.90 1.50 -1.90 1.50 -2.10 0 -0.25 0.85 -0.40 1.90 -0.30 1.70 0.15 1.85 0.25 2 1.90 0.10 0.95 0.50 1.95 0.90 2.15 0.40 0.20 0.70 1 0.70 1.70 0 0.70 0.40 1.65 0.90 2.10 0.45 0.45 1.15 1.40 1.50 2.20 0.30 0.75 0.80 1.35 1.05 1.35 0.25 0 0.80 0.60 1.15 1.40 0.40 0.75 0.95 1.80 1.25 2.35 0.35 0.55 0.70 1.40 0.85 1.90 0.15 0.50 1 1.20 1.80 1.50 0.90 0.35 1.65 1.05 1.80 1.70 0.20 0.70 0.70 1.15 1.25 1.15 0.60 0 1.20 0.55 1.60 1.40 0.30 0.75 1 1.80 1.45 2.30 0.50 0.55 0.90 1.30 0.90 1.65 0 0.35 0.25 0.65 0.50 0.65 0.30 0 0.50 0.55 0.50 1.25 0 0.75 0.30 1.25 0.70 1.25 0.40 0 0.95 0.70 1.25 1.50 0.25 0.85 1.20 2.10 2.05 2.80 0.80 0.70 1.50 1.70 1.50 2.25 0 0.50 0.35 0.95 0.75 0.95 0.45 0 0.90 0.35 1.05 0.75 0.20 0.40 0.55 0.75 0.80 0.75 0.80 0 1.85 1.60 1.90 2.90 0 0.75 0.30 1.10 1 1.10 0.65 0 1 0.35 1 0.95 0 0.50 0.45 1.05 1 1.20 0.65 0.15 1 0.70 1 1.45 0 2.25 1 4.90 1.90 4.90 1 0.05 3.25 1.90 3.70 3.05 0.20 0.45 1 0.95 1.85 1.10 1.10 0.25 1.55 0.60 1.55 1.30 0 2.40 0.30 2.55 5.80 2.55 4.85 0 5.20 0.05 5.20 1 0 0.95 -0.35 1 -12.90 1 -15.20 0 -13.30 -0.85 -18.35 8.25 -1.85 3.30 -4.55 8.05 -6 10.50 -1.45 2.50 -5.15 9 -8.25 14.50 -3.10 5.50 -6.80 12.05 -8.25 14.50 -1.40 2.50 -7.05 12.40 -12.50 22 -5.45 9.65 -12 21.10 -14.50 25.50 l-4.55 8 -31.90 0.15 -31.85 0.10 2.60 -4.85z"/>
  <path d="M648 553.15 c-0.35 -2.45 -0.80 -6.20 -1.05 -8.40 -0.25 -2.20 -0.60 -5 -0.85 -6.20 l-0.35 -2.25 -3.50 3 c-1.90 1.65 -5.70 4.60 -8.40 6.60 -4.05 3 -5.15 3.60 -6.80 3.60 -2.20 0 -4.40 -1.80 -4.85 -3.95 -0.50 -2.50 -1.35 -5.05 -1.70 -5.05 -0.30 0 -0.90 -1.70 -1.80 -5 -0.45 -1.75 -4.70 -10.45 -5.25 -10.75 -0.25 -0.20 -0.45 -0.75 -0.45 -1.25 0 -0.50 -0.70 -2.05 -1.50 -3.35 -1.85 -2.95 -2.35 -5.60 -1.50 -7.65 0.50 -1.20 0.90 -1.50 2.20 -1.50 31.35 -0.10 65 0.05 65.20 0.20 0.15 0.15 0 0.55 -0.30 0.90 -0.50 0.65 -20.85 36.30 -24.15 42.30 -1.40 2.60 -1.90 3.10 -3 3.10 -1.25 0 -1.35 -0.15 -1.95 -4.35z"/>
  <path d="M629.20 459.65 c-1.80 -2.60 -6.50 -8.60 -17.45 -22.10 -2.20 -2.75 -6 -7.25 -8.50 -10.05 -2.45 -2.80 -5.60 -6.35 -6.95 -7.90 -6.40 -7.50 -16.40 -18.15 -28.80 -30.75 -5.10 -5.15 -9.30 -9.60 -9.40 -9.85 -0.10 -0.25 2.20 -4.60 5.05 -9.60 6.45 -11.35 27.40 -48.15 38.60 -67.90 16.10 -28.40 14.20 -25.50 16.40 -25.50 2.15 0 2.85 0.55 3.75 2.75 0.35 0.85 1.45 2.20 2.45 3 2.30 1.90 4.85 4.35 7.45 7.30 1.15 1.25 2.45 2.45 2.90 2.60 0.45 0.20 0.80 0.60 0.80 0.95 0 0.35 0.60 0.95 1.40 1.25 0.75 0.35 2.25 1.55 3.35 2.65 2.75 2.85 2.90 3 8 7.05 2.50 1.95 5.20 4.20 6 4.95 0.85 0.75 2.10 1.50 2.90 1.70 1.25 0.30 1.35 0.50 1.35 2.95 0 2.40 -0.45 3.40 -5.80 12.85 -3.20 5.65 -8.30 14.65 -11.30 20 -8.40 14.80 -9.20 16.25 -17.15 30.25 -4.05 7.15 -9.30 16.40 -11.65 20.50 -2.30 4.15 -4.55 8 -4.95 8.65 l-0.65 1.10 33.50 0 c31.45 0 33.55 -0.05 33.85 -0.85 0.20 -0.50 1.10 -2.25 2.05 -3.90 0.95 -1.65 2.55 -4.55 3.60 -6.50 1 -1.90 3.50 -6.30 5.50 -9.75 3.25 -5.60 19.65 -34.55 22.10 -39 1.35 -2.45 3.35 -4 5.20 -4 1.75 0 2.20 0.65 2.20 3.10 0 2.15 1.40 4.90 2.55 4.90 0.50 0 1.25 0.65 1.70 1.45 0.40 0.80 0.90 1.55 1.15 1.65 0.25 0.05 0.75 0.85 1.15 1.65 0.40 0.85 1.20 1.70 1.80 2 0.60 0.25 1.15 0.90 1.25 1.50 0.10 0.55 0.75 1.30 1.55 1.65 0.90 0.45 1.35 1.05 1.35 1.85 0 0.65 0.40 1.50 0.90 1.85 0.90 0.70 2.70 2.80 4.35 5.15 0.55 0.75 1.85 2.35 2.90 3.50 2.05 2.25 2.70 3.25 4.40 6.65 1.75 3.65 2.45 4.10 6.45 4.10 l3.50 0 0 1.95 c0 2.05 -1.40 4.70 -17.65 33.30 -3.55 6.35 -8.55 15.10 -11 19.50 -2.50 4.40 -6 10.60 -7.85 13.75 -1.85 3.15 -3.50 6.10 -3.70 6.50 -0.15 0.40 -0.70 1.45 -1.20 2.25 l-0.95 1.50 -38.25 0.15 -38.25 0.10 -1.95 -2.85z"/>
  <path d="M514 342.55 c0 -0.55 -0.75 -1.40 -1.70 -2.05 -0.95 -0.55 -1.80 -1.25 -1.90 -1.50 -0.15 -0.50 -8.05 -6.30 -16.20 -11.95 -4.15 -2.90 -11.80 -7.50 -22.15 -13.35 -0.90 -0.50 -2.25 -1.40 -2.90 -1.95 l-1.25 -1.05 1.75 -2.95 c0.95 -1.65 4 -6.95 6.70 -11.75 7.10 -12.50 12.70 -22.20 12.90 -22.40 0.40 -0.45 4.25 1.05 6.25 2.40 18.10 12.05 24.95 16.85 28.45 19.85 2.15 1.90 3.70 3 9.75 7.10 l3.30 2.25 -1.20 2 c-0.60 1.15 -4.75 8.35 -9.15 16.05 -4.40 7.70 -8.75 15.40 -9.70 17.10 -1.70 3.10 -2.95 4.05 -2.95 2.20z"/>
 </g>
 <g fill="#8e8ce9">
  <path d="M646.05 562.15 c0.05 -1.35 -0.40 -3.60 -0.95 -5.15 -1.10 -3 -2.40 -9.80 -2.90 -15.10 -0.20 -2.70 -0.45 -3.40 -1.10 -3.40 -0.95 -0.05 3.05 -3.90 5.20 -5.05 1.65 -0.85 2.25 0 1.60 2.35 -0.30 1.10 -0.25 2.35 0.05 3.60 0.30 1 0.55 3 0.55 4.35 0 1.40 0.25 3.40 0.60 4.50 0.30 1.10 0.60 2.55 0.65 3.25 0.05 0.70 0.10 1.95 0.15 2.85 0.10 1.15 0.35 1.60 1.05 1.75 0.90 0.15 0.75 0.55 -1.35 4.25 -2.70 4.80 -3.65 5.25 -3.55 1.80z"/>
  <path d="M619.25 549.40 c-0.75 -1.45 -1.70 -3.65 -2.10 -4.90 -0.60 -1.85 -3.35 -8.60 -5.20 -12.75 -0.25 -0.55 -1 -3 -1.70 -5.40 -0.65 -2.40 -1.55 -4.75 -2 -5.15 -1.25 -1.25 -0.90 -4 0.90 -7.25 1.40 -2.60 1.75 -2.95 3.10 -2.90 1.05 0.05 1.20 0.15 0.45 0.30 -2.25 0.45 -1.85 4.45 0.80 8.15 0.55 0.75 1 1.85 1 2.40 0 0.60 0.20 1.15 0.45 1.35 0.65 0.35 4.95 9.30 5.30 11.05 0.40 1.85 1.35 4.40 1.75 4.70 0.55 0.40 2.05 4.60 1.80 4.90 -0.45 0.45 1.30 3 2.50 3.65 0.95 0.50 1.30 0.45 1.95 -0.05 0.65 -0.55 0.75 -0.40 0.75 0.85 0 1.95 -2.90 3.65 -6.15 3.65 -2.25 0 -2.30 -0.05 -3.60 -2.60z"/>
  <path d="M484.05 532.30 c-0.85 -1.80 -1.75 -3.30 -1.95 -3.30 -0.20 0 -0.40 -0.50 -0.45 -1.10 -0.20 -2.10 -2.25 -6.90 -3 -6.90 -0.85 0 -1 0.30 1.80 -4.90 2.20 -4 2.95 -4.60 4.50 -3.65 0.85 0.55 1.45 5.25 1.85 14.30 0.25 5.65 0.15 7.20 -0.40 7.95 -0.70 0.85 -0.85 0.70 -2.35 -2.40z"/>
  <path d="M570.30 468.90 c0.75 -2.50 2.25 -5.55 2.50 -5.25 0.20 0.15 -0.25 1.45 -1 2.90 -0.70 1.40 -1.15 2.80 -1 3 0.15 0.25 0 0.45 -0.30 0.45 -0.35 0 -0.45 -0.40 -0.20 -1.10z"/>
  <path d="M455.75 462 c-3.40 -0.30 -3.40 -0.35 -0.85 -0.40 1.80 -0.05 2.70 -0.35 2.90 -0.85 0.20 -0.40 0.50 -0.60 0.75 -0.45 0.25 0.15 0.45 -0.20 0.45 -0.80 0 -0.55 -0.30 -1.15 -0.70 -1.30 -0.90 -0.35 -3.30 -3.95 -3.30 -4.90 0 -0.40 -0.30 -0.95 -0.70 -1.15 -0.35 -0.20 -0.80 -1.05 -0.95 -1.90 -0.10 -0.80 -0.50 -2.15 -0.80 -3 -0.30 -0.80 -0.65 -2.10 -0.80 -2.85 -0.15 -0.75 -0.60 -1.70 -1.05 -2.10 -0.40 -0.45 -0.60 -0.80 -0.40 -0.80 0.15 0 0.10 -0.30 -0.20 -0.60 -0.30 -0.35 -0.65 -1.55 -0.85 -2.65 -0.20 -1.10 -0.55 -2.20 -0.70 -2.50 -0.20 -0.25 -0.40 -1.15 -0.45 -1.90 -0.10 -1.45 -1.25 -3.05 -1.80 -2.50 -0.15 0.20 -0.30 -0.30 -0.30 -1.05 0 -0.75 -0.20 -1.25 -0.45 -1.10 -0.25 0.15 -0.70 -0.75 -1 -2.05 -0.35 -1.25 -0.95 -2.95 -1.35 -3.75 -0.40 -0.80 -1.05 -3 -1.45 -4.80 -1.05 -5.25 -2.30 -9.75 -3.05 -10.85 -0.40 -0.55 -0.70 -1.35 -0.70 -1.85 0 -0.50 -0.20 -0.90 -0.40 -0.90 -0.20 0 -0.40 -0.45 -0.45 -1.05 -0.15 -1.75 -1.70 -5.95 -2.20 -5.95 -0.30 0 -0.40 -0.20 -0.20 -0.45 0.15 -0.25 0.05 -0.60 -0.25 -0.80 -0.25 -0.15 -0.50 -1.20 -0.50 -2.25 0 -1.05 -0.20 -2.05 -0.40 -2.20 -0.20 -0.10 -0.45 -0.95 -0.50 -1.85 -0.05 -0.90 -0.30 -1.85 -0.55 -2.15 -0.20 -0.30 -0.40 -1.10 -0.45 -1.80 0 -0.65 -0.35 -2.20 -0.70 -3.35 -0.55 -1.90 -0.80 -2.15 -2.05 -2.15 -0.80 0 -1.35 -0.15 -1.25 -0.40 0.10 -0.20 0.95 -1.80 1.90 -3.50 1.55 -2.80 1.90 -3.10 3 -2.85 0.70 0.20 1.35 0.55 1.40 0.80 0.10 0.25 0.60 0.45 1.10 0.45 0.50 0 1.10 0.45 1.25 1 0.15 0.55 0.65 1 1.05 1 0.40 0 0.70 0.45 0.70 1 0 0.55 0.25 1 0.50 1 0.30 0 0.50 0.55 0.50 1.15 0 0.65 0.45 2.50 1 4.10 0.55 1.60 1 3.75 1 4.80 0 2.35 0.40 3.45 1.30 3.45 0.40 0 0.70 0.35 0.70 0.75 0 0.40 0.25 0.75 0.50 0.75 0.30 0 0.50 1.85 0.50 4.50 0 2.50 0.20 4.50 0.45 4.50 0.25 0 0.55 0.70 0.75 1.50 0.15 0.90 0.60 1.50 1.05 1.50 0.45 0 0.75 0.45 0.75 1.20 0 0.65 0.40 2.20 0.90 3.40 0.55 1.20 1.25 3.75 1.60 5.65 0.40 1.95 1.20 4.30 1.85 5.30 0.65 0.95 1.50 3.10 1.95 4.75 0.40 1.60 0.95 3.05 1.20 3.10 0.30 0.10 0.50 0.75 0.50 1.40 0 0.65 0.25 1.20 0.50 1.20 0.30 0 0.50 0.60 0.50 1.30 0 0.70 0.45 1.85 1 2.55 0.55 0.70 1 1.60 1 1.95 0 0.40 0.20 0.70 0.45 0.70 0.25 0 0.60 2.05 0.75 4.50 0.35 4.35 0.40 4.50 1.60 4.50 0.75 0 1.20 0.30 1.20 0.75 0 0.40 0.25 0.75 0.50 0.75 0.30 0 0.50 1.25 0.50 2.75 0 2.60 0.10 2.85 1.50 3.65 1.25 0.70 1.50 1.15 1.50 2.75 0 1 0.25 1.85 0.50 1.85 0.30 0 0.50 0.45 0.50 1 0 0.95 -0.30 1 -4.10 0.90 -2.30 -0.05 -5.70 -0.20 -7.65 -0.40z"/>
  <path d="M588 461.50 c0.95 -0.20 1.40 -0.40 0.95 -0.45 -1.20 -0.10 -1.55 -1.45 -0.60 -2 0.70 -0.35 0.45 -0.55 -1.25 -1.05 -1.20 -0.30 -2 -0.75 -1.85 -1 0.40 -0.65 -2.35 -3.05 -3.10 -2.75 -1.10 0.35 -2.20 -2.30 -2.15 -5.15 0 -0.80 -0.35 -1.30 -1 -1.45 -0.55 -0.15 -1 -0.70 -1 -1.20 0 -0.55 -0.20 -0.95 -0.50 -0.95 -0.25 0 -0.50 0.35 -0.50 0.75 0 1.35 -1 0.80 -1.05 -0.60 -0.10 -2.65 -0.20 -2.90 -0.90 -2.75 -0.40 0.10 -0.55 -0.15 -0.40 -0.65 0.20 -0.45 0.05 -0.75 -0.35 -0.75 -0.40 0 -0.80 -0.35 -1 -0.75 -0.15 -0.40 -0.60 -0.75 -1.05 -0.75 -0.40 0 -0.75 -0.45 -0.75 -0.95 0 -0.55 -0.70 -1.55 -1.50 -2.25 -0.85 -0.70 -1.80 -1.95 -2.05 -2.80 -0.30 -0.80 -0.85 -1.50 -1.20 -1.50 -0.75 0 -1.40 -1.35 -0.95 -2.05 0.15 -0.25 0 -0.45 -0.25 -0.45 -0.30 0 -0.55 -0.30 -0.55 -0.65 0 -0.35 -0.40 -1.10 -0.90 -1.65 -0.45 -0.50 -1.15 -1.55 -1.45 -2.30 -0.40 -0.85 -1 -1.40 -1.60 -1.40 -0.55 0 -1.05 -0.45 -1.25 -1.15 -0.15 -0.65 -0.90 -1.35 -1.80 -1.70 -0.80 -0.30 -1.65 -1 -1.80 -1.50 -0.15 -0.50 -0.50 -1.35 -0.85 -1.90 -0.30 -0.55 -0.85 -1.60 -1.25 -2.35 -0.35 -0.80 -0.90 -1.40 -1.15 -1.40 -0.25 0 -0.75 -0.60 -1.10 -1.35 -0.65 -1.55 -1.55 -2.65 -2.20 -2.65 -0.20 0 -0.40 -0.75 -0.40 -1.60 0 -1.40 -0.15 -1.65 -1.10 -1.55 -1.25 0.15 -1.50 -0.75 -0.65 -2.40 0.30 -0.55 0.40 -1.20 0.20 -1.55 -0.20 -0.35 -0.60 -0.10 -1 0.70 -0.80 1.55 -2.50 2.10 -2.95 1 -0.25 -0.65 3.85 -8.50 6.40 -12.20 1.15 -1.75 1.85 -1.80 1.85 -0.15 0 0.70 0.30 1.25 0.65 1.25 1.95 0 3.30 4.65 1.60 5.30 -1.10 0.45 -0.90 2.20 0.35 3.25 0.55 0.55 1.25 0.95 1.50 0.95 0.20 0 0.40 0.35 0.40 0.75 0 0.40 0.15 0.75 0.40 0.75 0.20 0 0.65 0.75 1.05 1.65 0.35 0.85 2.10 3 3.85 4.70 1.75 1.70 3.20 3.40 3.20 3.80 0 0.90 2.40 3.55 3.65 4 0.45 0.15 0.85 0.75 0.85 1.25 0 0.50 0.45 1.35 0.95 1.80 0.55 0.50 1.70 2.30 2.60 4.10 0.90 1.75 1.85 3.20 2.05 3.20 0.20 0 0.40 0.30 0.40 0.70 0 0.35 0.45 0.80 1 0.95 0.65 0.15 1 0.70 1 1.40 0 0.65 0.75 1.75 2 2.80 1.10 0.95 2 2 2 2.35 0 0.35 0.50 1.05 1.15 1.60 0.60 0.55 1.55 1.65 2.10 2.40 2.15 3 3.85 5.05 4.55 5.45 0.35 0.20 1.10 1.35 1.60 2.50 0.55 1.15 1.55 2.75 2.30 3.50 0.70 0.75 1.30 1.85 1.30 2.40 0 1.10 0.30 1.25 3.65 1.70 2.15 0.30 2.35 0.45 2.35 1.65 0 0.75 -0.15 1.85 -0.30 2.50 -0.30 1.10 -0.45 1.10 -7.15 1.05 -4.30 -0.05 -6.15 -0.20 -5.05 -0.45z"/>
  <path d="M748 386.95 c0.85 -1.55 0.60 -2.05 -0.60 -1.25 -0.95 0.70 -1.15 0.70 -1.70 -0.10 -0.55 -0.70 -0.80 -0.75 -1.70 -0.20 -0.85 0.55 -1.25 0.45 -2.50 -0.45 -0.80 -0.60 -2.05 -2.25 -2.75 -3.65 -2.05 -4.10 -2.55 -4.85 -4.60 -7.05 -1.05 -1.15 -2.35 -2.75 -2.90 -3.50 -1.55 -2.20 -3.40 -4.40 -4.45 -5.30 -0.50 -0.40 -0.95 -1.25 -1 -1.85 0 -0.65 -0.55 -1.40 -1.30 -1.75 -0.65 -0.35 -1.35 -1.15 -1.55 -1.85 -0.20 -0.70 -0.35 -0.95 -0.40 -0.60 -0.05 0.85 -2.30 -1.80 -2.75 -3.25 -0.20 -0.65 -0.55 -1.15 -0.80 -1.15 -0.25 0 -0.85 -0.70 -1.25 -1.50 -0.45 -0.90 -1.10 -1.50 -1.60 -1.40 -1 0.20 -3.15 -3.80 -3.10 -5.60 0.10 -2.30 0 -2.65 -0.65 -2.10 -0.60 0.45 -3.90 1.10 -3.90 0.80 0 -0.15 0.75 -1.50 2.80 -5.05 0.55 -0.90 1.25 -1.65 1.60 -1.65 0.30 0 0.60 -0.20 0.60 -0.50 0 -0.25 0.90 -0.50 2 -0.50 1.80 0 2 0.10 2 1.25 0 1.65 1.10 3.35 4.30 6.55 1.35 1.40 3.20 3.65 4.05 5 1.85 2.85 3.75 5.25 6.05 7.50 0.85 0.90 1.60 1.75 1.60 1.90 0 0.30 6.10 6.40 7.60 7.60 0.35 0.30 1.10 1.15 1.65 1.85 0.55 0.75 1.25 1.35 1.55 1.35 0.30 0 0.95 0.85 1.50 1.85 0.50 1.05 1.45 2.40 2.10 3.05 0.60 0.60 1.10 1.55 1.10 2 0 0.50 0.70 1.45 1.50 2.20 1.05 0.90 1.50 1.75 1.50 2.85 0 2.05 -1.75 4.90 -3.25 5.15 -1.05 0.20 -1.15 0.10 -0.75 -0.65z"/>
  <path d="M497 371.40 c-0.05 -2 -1 -3.40 -2.30 -3.40 -1.25 0 -14.30 -13.80 -18.70 -19.75 -1.25 -1.65 -2.55 -3.30 -2.85 -3.65 -0.35 -0.35 -0.65 -0.85 -0.65 -1.05 0 -0.25 -0.65 -1.20 -1.50 -2.10 -0.80 -0.95 -2.15 -3.15 -3.05 -4.95 -0.85 -1.80 -2 -3.75 -2.45 -4.40 -0.50 -0.60 -1.10 -2.05 -1.25 -3.20 -0.40 -2.30 -1.20 -3.90 -1.95 -3.90 -0.25 0 -0.85 0.35 -1.30 0.75 -0.70 0.60 -0.95 0.65 -1.10 0.15 -0.25 -0.70 8.25 -16.05 9.05 -16.30 0.30 -0.10 1.15 0.25 1.90 0.80 0.75 0.50 2.25 1.50 3.25 2.15 2 1.25 2.40 1.95 1.15 1.95 -0.55 0 -0.75 0.55 -0.75 2 0 1.80 0.15 2 1.25 2 0.90 0 1.60 0.55 2.45 1.90 0.65 1 1.90 2.50 2.75 3.30 0.85 0.85 1.55 1.70 1.55 1.95 0 0.20 0.50 1.15 1.15 2 0.65 0.90 1.60 2.45 2.15 3.50 0.50 1.05 1.30 2.30 1.70 2.75 1.30 1.40 8.60 12.45 10.20 15.35 0.45 0.85 1.50 2.65 2.30 4 0.80 1.40 1.45 2.80 1.50 3.20 0 0.35 0.55 1.30 1.25 2.15 1.90 2.20 1.60 3.85 -1.60 9.45 -2.95 5.20 -4.15 6.10 -4.15 3.35z"/>
  <path d="M656.65 317.65 c-0.75 -0.25 -0.90 -2.65 -0.15 -2.65 0.75 0 0.60 -3 -0.10 -3.10 -0.35 0 -0.90 -0.10 -1.25 -0.10 -0.35 -0.05 -1.35 -0.75 -2.25 -1.65 -0.90 -0.85 -3.65 -3.15 -6.15 -5.10 -6.10 -4.90 -6.10 -4.85 -6.55 -5.65 -0.80 -1.20 -4.85 -4.40 -5.25 -4.10 -0.25 0.15 -0.65 -0.30 -0.95 -1 -0.25 -0.70 -0.75 -1.30 -1.10 -1.35 -0.35 0 -2 -1.60 -3.65 -3.50 -1.65 -1.95 -3.65 -4 -4.50 -4.55 -2.15 -1.50 -4.20 -3.85 -4.55 -5.25 -0.15 -0.60 -0.50 -1 -0.75 -0.85 -0.25 0.15 -0.45 -0.10 -0.45 -0.60 0 -0.60 -0.30 -0.75 -1.10 -0.50 -0.65 0.15 -1.40 0.30 -1.75 0.30 -0.30 0 -1.30 1.35 -2.20 3 -0.90 1.60 -1.75 2.90 -1.85 2.80 -0.10 -0.10 1.45 -3.05 3.45 -6.55 l3.65 -6.35 1.85 0.25 c1.25 0.15 2.50 0.90 4 2.30 1.20 1.10 2.40 2.05 2.60 2.05 0.65 0 1.85 1.35 1.85 2.10 0 0.90 3.95 4.90 4.85 4.90 0.70 0 3.70 2.90 5 4.90 0.40 0.60 1.10 1.10 1.45 1.10 0.40 0 0.70 0.35 0.70 0.75 0 0.40 0.25 0.75 0.50 0.75 0.30 0 0.50 0.35 0.50 0.75 0 0.40 0.45 0.75 1 0.75 1 0 3.10 1.15 4.40 2.35 0.35 0.35 0.90 0.65 1.15 0.65 0.80 0 5.45 4.55 5.45 5.30 0 0.40 0.45 0.70 1 0.70 0.55 0 1 0.25 1 0.50 0 0.90 2 2.50 3.15 2.50 1.25 0.05 2.85 1.10 2.85 1.95 0 0.30 0.35 0.55 0.75 0.55 0.90 0 0.80 0.30 -3.35 7.30 -1.55 2.65 -2.90 4.45 -3.25 4.35z"/>
  <path d="M534.95 306.65 c-0.40 -0.45 -1.80 -1.55 -3.20 -2.50 -5.10 -3.40 -7.20 -4.95 -9.30 -6.80 -3.05 -2.60 -12.05 -9 -21.40 -15.10 -2.10 -1.40 -4.75 -3.20 -5.90 -4.05 -1.90 -1.40 -3.20 -2.05 -5.80 -2.90 -0.80 -0.25 -0.85 -0.40 -0.10 -1.80 0.65 -1.30 0.95 -1.45 2.40 -1.15 0.85 0.15 1.70 0.45 1.85 0.65 0.15 0.20 0.95 0.70 1.80 1.15 0.85 0.45 2.90 1.65 4.50 2.75 1.60 1.05 3.35 2.10 3.85 2.25 0.50 0.20 3.10 1.90 5.80 3.85 2.70 1.90 5.10 3.50 5.30 3.50 0.20 0 1.65 1 3.20 2.25 5.55 4.40 7.35 5.75 11.55 8.70 2.35 1.65 5.15 3.80 6.20 4.80 1.85 1.65 1.95 1.80 1.30 3 -0.35 0.70 -0.85 1.25 -1.10 1.25 -0.25 0 -0.30 0.25 -0.15 0.50 0.50 0.80 -0.05 0.55 -0.80 -0.35z"/>
 </g>
 <g fill="#9895eb">
  <path d="M643.60 560.90 c-0.65 -1.45 -1.50 -3.40 -1.90 -4.30 -0.40 -0.90 -1 -3 -1.30 -4.75 -0.30 -1.70 -0.95 -3.90 -1.40 -4.85 -0.50 -1 -1 -2.90 -1.05 -4.20 -0.15 -2.30 -0.05 -2.55 1.80 -4.10 1.05 -0.95 2.30 -1.70 2.75 -1.70 1.05 0 1.30 0.80 1.45 4.75 0.20 6 2.80 16.25 4.45 17.60 0.65 0.55 0.65 0.85 0.10 2 -0.35 0.80 -0.65 1.55 -0.60 1.80 0.05 0.20 -0.65 0.35 -1.55 0.35 -1.45 0 -1.70 -0.25 -2.75 -2.60z"/>
  <path d="M616.40 554.25 c-0.35 -0.45 -0.90 -1.10 -1.25 -1.45 -1 -1.10 -4.45 -8.45 -5.40 -11.30 -0.45 -1.50 -1.60 -4.30 -2.50 -6.25 -4.65 -9.80 -4.65 -10.05 -1 -16.40 3.10 -5.40 3.40 -5.65 3 -2.55 -0.30 2 -0.20 2.70 0.45 3.35 0.45 0.45 1.40 2.80 2.05 5.20 0.70 2.40 1.45 4.85 1.70 5.40 1.85 4.15 4.60 10.90 5.20 12.75 0.40 1.25 1.35 3.40 2.05 4.85 1.10 2.15 1.50 2.55 2.55 2.40 1 -0.10 1.25 0.10 1.25 1.05 0 0.80 -0.60 1.45 -2.30 2.40 -2.60 1.45 -4.85 1.65 -5.80 0.55z"/>
  <path d="M485.15 520.90 c-0.30 -0.35 -0.65 -1.95 -0.75 -3.55 -0.20 -2.70 -1 -4.15 -1.95 -3.55 -0.20 0.10 -0.95 1.35 -1.70 2.80 -1.50 3 -2.85 4.60 -1.50 1.90 2.15 -4.35 6.50 -11.50 7 -11.50 0.45 0 0.55 1.85 0.40 6.60 -0.20 6.90 -0.55 8.50 -1.50 7.30z"/>
  <path d="M464.25 462 c-1.55 -0.25 -1.80 -0.40 -1.10 -0.70 0.45 -0.25 0.85 -0.70 0.85 -1.10 0 -0.40 0.25 -0.70 0.50 -0.70 0.90 0 0.25 -1.25 -1.10 -2.10 -0.80 -0.50 -1.40 -1.25 -1.40 -1.65 0 -0.40 -0.30 -0.75 -0.60 -0.75 -0.40 0 -0.45 -0.15 -0.15 -0.40 0.70 -0.50 0.95 -3.60 0.30 -3.60 -0.30 0 -0.55 -0.30 -0.55 -0.70 0 -0.45 -0.35 -0.60 -0.95 -0.45 -1.60 0.40 -1.85 -0.40 -2.05 -7.20 -0.05 -1.20 -0.30 -2.15 -0.55 -2.15 -0.25 0 -0.45 -0.30 -0.45 -0.70 0 -0.35 -0.45 -1.25 -1 -1.95 -0.55 -0.70 -1 -1.75 -1 -2.35 0 -0.60 -0.35 -1.40 -0.75 -1.80 -0.40 -0.40 -0.55 -1.10 -0.40 -1.55 0.20 -0.50 0.10 -0.70 -0.20 -0.50 -0.30 0.20 -0.75 -0.85 -1.15 -2.55 -0.35 -1.55 -1.25 -3.95 -2.05 -5.25 -0.80 -1.35 -1.45 -2.95 -1.45 -3.65 0 -0.65 -0.20 -1.20 -0.40 -1.20 -0.20 0 -0.40 -0.85 -0.45 -1.90 -0.05 -1 -0.60 -3 -1.20 -4.35 -0.60 -1.40 -1.05 -3.05 -1 -3.75 0 -0.90 -0.10 -1.05 -0.40 -0.55 -0.35 0.55 -0.50 0.45 -0.80 -0.40 -0.15 -0.55 -0.50 -1.05 -0.75 -1.05 -0.25 0 -0.35 -0.35 -0.15 -0.80 0.15 -0.45 0 -1 -0.35 -1.20 -0.40 -0.25 -0.60 -1.75 -0.55 -4.70 0 -2.45 -0.20 -4.30 -0.45 -4.30 -0.30 0 -0.50 -0.40 -0.55 -0.85 0 -0.80 -0.05 -0.75 -0.40 0.05 -0.35 0.90 -0.45 0.80 -0.95 -0.70 -0.35 -0.90 -0.60 -2.50 -0.60 -3.50 0 -2.35 -0.90 -5.05 -1.90 -5.85 -0.45 -0.35 -0.55 -0.65 -0.30 -0.65 0.30 0 0.40 -0.80 0.25 -1.85 -0.20 -1.75 -0.25 -1.80 -0.60 -0.65 -0.30 1 -0.35 0.80 -0.40 -1 -0.05 -1.25 -0.25 -2 -0.45 -1.70 -0.25 0.45 -0.50 0.40 -1 -0.10 -0.35 -0.35 -0.60 -0.80 -0.60 -0.95 0.05 -1.05 -0.05 -1.25 -0.45 -1 -0.25 0.15 -0.75 -0.05 -1.15 -0.40 -0.35 -0.35 -1.05 -0.80 -1.55 -1 -0.90 -0.35 -0.85 -0.50 0.45 -2.75 0.75 -1.30 1.65 -2.80 1.95 -3.35 2.50 -4.55 3.95 -6.75 4.40 -6.75 1.70 0.05 2.85 0.75 3.35 2.15 0.35 0.90 1.05 2.55 1.55 3.70 0.55 1.20 0.95 2.55 0.95 3.05 0 0.50 0.20 1.10 0.50 1.40 0.25 0.25 0.80 2.10 1.25 4.10 0.40 2 1.20 4.50 1.75 5.60 0.55 1.10 1.60 3.75 2.25 5.95 0.70 2.20 1.50 4.15 1.75 4.30 0.30 0.15 0.50 0.75 0.50 1.30 0 0.50 0.25 0.95 0.50 0.95 0.30 0 0.50 1.10 0.50 2.40 0 1.35 0.55 4.10 1.30 6.15 0.70 2.05 1.50 4.90 1.75 6.40 0.30 1.50 1.10 3.85 1.75 5.25 0.65 1.35 1.20 2.95 1.20 3.55 0 0.55 0.30 1.45 0.70 2 0.35 0.55 1.10 2.40 1.60 4.15 0.50 1.70 1.10 3.10 1.30 3.10 0.20 0 0.40 0.70 0.40 1.50 0 0.85 0.70 3 1.50 4.85 0.85 1.80 1.50 3.70 1.50 4.20 0 0.55 0.45 1.40 0.95 1.90 0.55 0.55 1.15 1.85 1.35 2.90 0.20 1.05 0.75 2.45 1.25 3.15 0.55 0.70 1.15 2.35 1.40 3.70 0.30 1.55 0.90 2.85 1.75 3.65 0.70 0.65 1.30 1.40 1.30 1.60 0 0.25 0.70 0.55 1.50 0.75 1.35 0.25 1.50 0.50 1.50 2.05 0 1.40 -0.20 1.75 -1 1.75 -0.65 0 -1 0.35 -1 1 0 0.95 -0.30 1 -4.60 0.95 -2.55 -0.05 -5.55 -0.25 -6.65 -0.45z"/>
  <path d="M591.50 462 l-8.75 -0.30 8 -0.15 c5.05 -0.05 7.65 -0.30 7 -0.55 -0.55 -0.25 -0.70 -0.45 -0.35 -0.45 0.30 -0.05 0.60 -0.35 0.60 -0.75 0 -0.40 0.30 -0.80 0.65 -0.95 0.30 -0.10 -0.50 -0.40 -1.90 -0.55 -3.50 -0.50 -3.75 -0.65 -3.75 -1.75 0 -0.55 -0.60 -1.65 -1.30 -2.40 -0.75 -0.75 -1.75 -2.35 -2.30 -3.50 -0.50 -1.15 -1.25 -2.30 -1.60 -2.50 -0.70 -0.40 -2.40 -2.45 -4.55 -5.45 -0.55 -0.75 -1.50 -1.85 -2.10 -2.40 -0.65 -0.55 -1.15 -1.25 -1.15 -1.60 0 -0.35 -0.90 -1.40 -2 -2.35 -1.25 -1.05 -2 -2.15 -2 -2.80 0 -0.70 -0.35 -1.25 -1 -1.40 -0.55 -0.15 -1 -0.60 -1 -0.95 0 -0.40 -0.15 -0.70 -0.40 -0.70 -0.20 0 -0.90 -1 -1.55 -2.25 -0.65 -1.25 -1.40 -2.25 -1.65 -2.25 -0.30 0 -0.40 -0.30 -0.25 -0.70 0.15 -0.40 -0.25 -1.20 -0.95 -1.85 -0.65 -0.60 -1.20 -1.55 -1.20 -2.05 0 -0.50 -0.40 -1.10 -0.85 -1.25 -1.25 -0.45 -3.65 -3.10 -3.65 -4 0 -0.40 -1.45 -2.10 -3.20 -3.80 -1.75 -1.70 -3.50 -3.85 -3.85 -4.70 -0.40 -0.90 -0.85 -1.65 -1.05 -1.65 -0.25 0 -0.40 -0.30 -0.40 -0.70 0 -0.40 -0.45 -0.90 -1 -1.05 -0.55 -0.15 -1 -0.55 -1 -0.80 0 -0.25 -0.30 -0.45 -0.70 -0.45 -0.50 0 -0.60 -0.55 -0.45 -2 0.20 -1.60 0.10 -2 -0.55 -2 -0.45 0 -0.80 -0.20 -0.80 -0.45 0 -0.60 1.30 -1.60 1.65 -1.25 0.15 0.15 0.55 0.15 0.85 -0.05 0.75 -0.45 -0.85 -2.25 -2 -2.25 -1.35 0 -0.95 -2.40 0.95 -5.70 l1.60 -2.85 2.35 0.15 c2 0.15 2.35 0.30 2.50 1.30 0.10 0.60 0.70 1.45 1.35 1.90 0.60 0.40 1.25 1.40 1.40 2.20 0.20 0.75 0.65 1.70 1.10 2.10 2.25 1.85 2.75 2.55 3.05 4.35 0.25 1.50 0.70 2.15 2.15 3.05 1.75 1.15 5.55 5.45 5.55 6.35 0 0.35 0.85 1.40 4.65 5.70 0.90 0.95 2.50 2.95 3.60 4.35 1.05 1.45 2.20 2.60 2.50 2.60 0.60 0 1.75 2.10 1.75 3.15 0 0.35 0.85 1.55 1.90 2.65 1 1.10 2.30 2.60 2.80 3.35 0.50 0.75 1.20 1.35 1.55 1.35 0.35 0 1 0.60 1.50 1.30 0.45 0.70 3.40 3.75 6.55 6.85 3.15 3.05 5.70 5.85 5.70 6.25 0 1.50 5.55 7.75 8.75 9.80 0.85 0.55 2.80 1.10 4.50 1.25 l3 0.30 0.15 1.90 0.15 1.85 5.20 0 c2.90 0 5.35 0.20 5.50 0.50 0.15 0.30 1 0.50 1.80 0.50 0.90 0 1.40 0.20 1.20 0.50 -0.35 0.55 -28.10 0.55 -44.25 0z"/>
  <path d="M476.60 453.15 c-0.80 -2.10 -1.80 -9.40 -1.45 -10.35 0.45 -1.15 1.35 -1 1.35 0.25 0 0.55 0.20 0.90 0.45 0.75 0.50 -0.35 1.25 3 0.80 3.65 -0.15 0.25 -0.05 0.55 0.25 0.65 0.25 0.05 0.65 1.55 0.90 3.30 0.40 3 0.40 3.10 -0.65 3.10 -0.75 0 -1.30 -0.45 -1.65 -1.35z"/>
  <path d="M464.35 401.65 c-0.40 -0.35 -0.50 -5.65 -0.10 -5.65 0.15 0 0.70 0.45 1.25 1 1.35 1.35 1.40 5 0.10 5 -0.50 0 -1.10 -0.15 -1.25 -0.35z"/>
  <path d="M746 392.05 c0 -0.80 1.85 -4.85 3.20 -6.95 1.40 -2.25 1.30 -3.15 -0.50 -4.35 -0.65 -0.40 -1.20 -1.20 -1.20 -1.75 0 -0.50 -0.50 -1.50 -1.10 -2.10 -0.65 -0.65 -1.60 -2 -2.10 -3.05 -0.55 -1 -1.20 -1.85 -1.50 -1.85 -0.30 0 -1 -0.60 -1.55 -1.35 -0.55 -0.70 -1.30 -1.55 -1.65 -1.85 -1.50 -1.20 -7.60 -7.30 -7.60 -7.60 0 -0.15 -0.75 -1 -1.60 -1.90 -2.30 -2.25 -4.20 -4.65 -6.05 -7.50 -0.85 -1.35 -2.70 -3.60 -4.05 -5 -3.20 -3.20 -4.30 -4.90 -4.30 -6.55 0 -0.70 -0.20 -1.25 -0.50 -1.25 -0.25 0 -0.50 0.25 -0.50 0.50 0 0.30 -0.45 0.50 -0.95 0.50 -0.55 0 -1.30 0.40 -1.65 0.90 -0.35 0.50 -1.05 1.05 -1.55 1.25 -0.90 0.35 -0.90 0.25 0.05 -1.30 0.50 -0.85 1.70 -2.95 2.60 -4.60 4.05 -7.40 5.10 -8.75 6.45 -8.70 0.70 0 2 0.45 2.80 0.95 0.85 0.55 2.10 1.30 2.85 1.75 1.65 0.90 3.40 2.65 4.40 4.40 1.05 1.75 4.30 5.15 8.05 8.35 1.75 1.50 3.60 3.25 4.15 3.90 0.50 0.65 1.45 1.40 2.10 1.60 0.90 0.35 1.20 0.85 1.20 2 0 1.20 0.60 2.10 2.85 4.25 1.55 1.50 3.20 2.75 3.65 2.75 0.90 0 2.50 1.50 2.50 2.35 0 0.30 0.45 0.65 1 0.80 0.65 0.15 1.45 1.25 2.15 2.80 0.70 1.65 1.40 2.55 2 2.55 1.70 0 0.95 2.75 -2.40 8.55 -1.75 3.15 -4.75 8.45 -6.60 11.80 -1.85 3.40 -3.70 6.15 -4 6.15 -0.35 0 -0.65 -0.20 -0.65 -0.45z"/>
  <path d="M502.10 362.50 c0.05 -0.95 -0.30 -1.90 -1 -2.65 -0.60 -0.65 -1.10 -1.50 -1.10 -1.90 -0.05 -0.40 -0.70 -1.80 -1.50 -3.20 -0.80 -1.35 -1.85 -3.15 -2.30 -4 -1.60 -2.90 -8.90 -13.95 -10.20 -15.35 -0.40 -0.45 -1.20 -1.70 -1.70 -2.75 -0.55 -1.05 -1.50 -2.60 -2.15 -3.50 -0.65 -0.85 -1.15 -1.80 -1.15 -2 0 -0.25 -0.70 -1.10 -1.55 -1.95 -0.85 -0.80 -2.10 -2.30 -2.75 -3.30 -0.85 -1.30 -1.60 -1.90 -2.40 -1.90 -1.55 0 -2.80 -1.40 -1.75 -2 0.55 -0.35 0.55 -0.60 0.05 -1.10 -1.25 -1.25 -0.25 -3.90 1.55 -3.90 1.80 0 25.50 14.55 27.40 16.80 0.35 0.40 0.70 1.60 0.80 2.60 0.20 1.95 1.50 4.35 3.15 5.85 0.55 0.50 1 1.40 1 2.05 0 0.65 0.30 1.35 0.65 1.55 0.35 0.20 1.25 1.50 2 2.85 2.20 4 1.90 5.85 -2.30 13.20 -3.45 6.05 -5 7.55 -4.75 4.60z"/>
  <path d="M661.15 307.05 c-0.10 -0.45 -0.65 -1.15 -1.25 -1.50 -0.55 -0.35 -0.85 -0.40 -0.65 -0.10 0.15 0.30 -0.05 0.55 -0.45 0.55 -0.45 0 -0.80 -0.20 -0.80 -0.50 0 -0.25 -0.45 -0.50 -1.05 -0.50 -0.55 0 -0.85 -0.25 -0.70 -0.50 0.15 -0.30 -0.05 -0.65 -0.45 -0.80 -0.45 -0.15 -0.80 -0.60 -0.80 -0.95 0 -0.40 -0.45 -0.75 -1 -0.85 -0.60 -0.10 -0.95 -0.30 -0.90 -0.50 0.20 -0.50 -3.65 -4.35 -5.15 -5.15 -0.75 -0.40 -1.45 -0.55 -1.65 -0.40 -0.15 0.20 -0.30 0 -0.30 -0.45 0 -0.40 -0.60 -1.05 -1.35 -1.40 -1.40 -0.70 -1.80 -0.85 -3 -0.95 -0.35 0 -0.65 -0.40 -0.65 -0.80 0 -0.40 -0.20 -0.75 -0.50 -0.75 -0.25 0 -0.50 -0.35 -0.50 -0.75 0 -0.40 -0.30 -0.75 -0.70 -0.75 -0.35 0 -1.05 -0.50 -1.45 -1.10 -0.90 -1.35 -3.95 -4.60 -4.50 -4.75 -0.20 -0.10 -0.55 -0.15 -0.75 -0.15 -0.85 0 -4.60 -4.20 -4.60 -5.10 0 -0.50 -0.30 -0.85 -0.60 -0.75 -0.35 0.05 -0.60 -0.20 -0.55 -0.50 0.10 -0.35 -0.05 -0.60 -0.30 -0.50 -0.25 0.05 -1.25 -0.65 -2.20 -1.50 -1 -0.90 -2 -1.65 -2.15 -1.65 -0.20 0 -0.75 -0.35 -1.25 -0.80 -0.80 -0.70 -0.95 -0.70 -1.70 0.50 -0.90 1.40 -1.75 1.70 -1.75 0.70 0 -0.35 1.40 -3.05 3.10 -6 2.75 -4.90 3.20 -5.40 4.50 -5.40 1 0 2.10 0.65 3.85 2.40 2.25 2.20 6.10 5.70 11.55 10.50 2.70 2.40 7.85 6.25 9.55 7.10 0.65 0.35 2.25 1.65 3.50 2.95 1.25 1.25 3.05 2.75 4 3.25 0.95 0.55 2.80 1.80 4.10 2.85 1.30 1.05 3.05 2.05 3.90 2.20 1.05 0.25 1.65 0.80 2.20 2.10 0.75 1.75 0.70 1.80 -1.90 6.40 -2.55 4.60 -4.20 6.10 -4.70 4.30z"/>
  <path d="M534.20 303.75 c-1.05 -1 -3.85 -3.15 -6.20 -4.80 -4.20 -2.95 -6 -4.30 -11.55 -8.70 -1.55 -1.25 -3 -2.25 -3.20 -2.25 -0.20 0 -2.60 -1.60 -5.30 -3.50 -2.70 -1.95 -5.30 -3.65 -5.80 -3.85 -0.50 -0.20 -2.35 -1.30 -4.15 -2.45 -1.80 -1.15 -3.85 -2.40 -4.60 -2.75 -0.80 -0.35 -1.40 -0.85 -1.40 -1.10 0 -0.25 -0.45 -0.35 -1.05 -0.20 -1.50 0.40 -1.65 -0.75 -0.40 -2.90 1.05 -1.80 1.20 -1.85 3.40 -1.65 1.30 0.15 2.90 0.55 3.65 0.95 3.80 1.95 16.10 9.75 19.30 12.15 2.05 1.55 3.95 2.80 4.30 2.80 0.35 0 1.85 1.15 3.35 2.60 2.55 2.50 5.15 4.45 8.80 6.65 0.90 0.55 2.10 1.40 2.65 1.90 0.55 0.45 1.55 0.85 2.20 0.85 2 0 2.10 2 0.25 5.25 -0.85 1.50 -1.70 2.75 -1.90 2.75 -0.20 0 -1.25 -0.80 -2.35 -1.75z"/>
 </g>
 <g fill="#a5a3ee">
  <path d="M616.50 723.25 c0 -5.90 0.05 -6.25 1 -6.25 0.95 0 1 0.35 1 6.25 0 5.90 -0.05 6.25 -1 6.25 -0.95 0 -1 -0.35 -1 -6.25z"/>
  <path d="M637.15 564.20 c-0.90 -0.90 -1.65 -2.05 -1.65 -2.65 0 -0.55 -0.25 -1.15 -0.50 -1.30 -1.25 -0.75 -2.50 -4.80 -2.50 -8 0 -3.20 -0.55 -5.10 -1.70 -5.85 -0.35 -0.25 -0.35 -0.50 -0.05 -0.80 1.45 -1.30 8.30 -6.10 8.70 -6.10 0.30 0 0.45 0.95 0.35 2.15 -0.10 1.25 0.20 2.80 0.70 3.85 0.50 0.95 1.10 3.15 1.40 4.85 0.30 1.75 0.90 3.85 1.30 4.75 0.40 0.90 1.25 2.80 1.85 4.25 1 2.25 1.30 2.50 2.10 2.05 1.20 -0.60 1.70 -0.15 0.85 0.85 -0.35 0.40 -0.50 0.75 -0.30 0.75 0.20 0 0 0.70 -0.45 1.50 -0.75 1.50 -0.80 1.50 -4.65 1.45 -3.65 -0.10 -3.95 -0.20 -5.45 -1.75z"/>
  <path d="M607.65 556.35 c-0.90 -0.90 -1.65 -1.90 -1.65 -2.25 0 -0.35 -0.25 -0.60 -0.50 -0.60 -0.30 0 -0.95 -0.95 -1.45 -2.15 -0.50 -1.15 -1.40 -3.15 -2 -4.35 -0.65 -1.25 -1.65 -3.70 -2.25 -5.50 -0.65 -1.80 -1.45 -4 -1.85 -4.90 -0.65 -1.55 -0.60 -1.85 1.25 -5.25 3.45 -6.40 5.90 -10.35 6.40 -10.35 0.25 0 0.35 0.40 0.20 0.90 -0.60 1.90 -0.45 4.45 0.40 6.35 0.50 1.10 1.65 3.60 2.55 5.50 0.90 1.95 2.05 4.75 2.50 6.25 0.90 2.80 4.35 10.05 5.40 11.35 1.75 2.10 1.95 2.20 2.65 1.60 0.55 -0.45 0.70 -0.35 0.70 0.75 0 1.05 -0.50 1.55 -3 2.80 -4.20 2.10 -7.15 2.05 -9.35 -0.15z"/>
  <path d="M484.55 509 c0.65 -1.10 1.45 -2 1.80 -2 0.80 0 0.80 0 -0.10 2.20 -0.55 1.25 -1.10 1.80 -1.80 1.80 -1 0 -1 0 0.10 -2z"/>
  <path d="M472.05 462.05 c-0.55 -0.35 -0.45 -0.50 0.50 -0.65 0.80 -0.10 1.25 -0.55 1.35 -1.25 0.10 -0.65 0.60 -1.15 1.25 -1.30 0.95 -0.15 0.85 -0.25 -0.50 -0.60 -0.90 -0.20 -1.75 -0.80 -1.90 -1.30 -0.20 -0.55 -0.50 -0.95 -0.75 -0.95 -0.80 0 -2 -2.30 -2.25 -4.30 -0.15 -1.10 -0.70 -2.50 -1.20 -3.20 -0.50 -0.70 -1.05 -2.10 -1.25 -3.15 -0.20 -1.05 -0.80 -2.35 -1.35 -2.90 -0.50 -0.50 -0.95 -1.35 -0.95 -1.90 0 -0.50 -0.65 -2.40 -1.50 -4.20 -0.80 -1.80 -1.55 -3.95 -1.60 -4.80 -0.05 -0.85 -0.25 -1.55 -0.40 -1.55 -0.20 0 -0.65 -1.10 -1 -2.50 -0.35 -1.35 -0.90 -2.50 -1.15 -2.50 -0.25 0 -0.35 -0.30 -0.20 -0.65 0.15 -0.35 -0.05 -1.05 -0.45 -1.60 -0.40 -0.50 -0.70 -1.40 -0.70 -2 0 -0.60 -0.55 -2.20 -1.20 -3.60 -0.70 -1.35 -1.35 -3.35 -1.55 -4.45 -0.40 -2.30 -2.25 -8.35 -2.70 -8.70 -0.35 -0.30 -0.50 -1.45 -0.65 -4.60 -0.05 -1.35 -0.25 -2.40 -0.50 -2.40 -0.20 0 -0.40 -0.45 -0.40 -0.95 0 -0.55 -0.20 -1.15 -0.50 -1.30 -0.25 -0.15 -1 -2 -1.70 -4.15 -0.65 -2.10 -1.80 -5.10 -2.50 -6.60 -0.70 -1.50 -1.30 -3.25 -1.30 -3.85 0 -0.65 -0.25 -1.15 -0.55 -1.15 -0.35 0 -0.45 -0.50 -0.25 -1.25 0.20 -0.70 0.10 -1.25 -0.15 -1.25 -0.30 0 -0.40 -0.30 -0.25 -0.70 0.15 -0.40 0.05 -0.85 -0.25 -1.05 -0.30 -0.15 -0.55 -0.75 -0.55 -1.30 0 -0.50 -0.40 -1.90 -0.95 -3.10 -0.50 -1.15 -1.20 -2.85 -1.55 -3.70 -0.35 -0.90 -0.80 -1.65 -1 -1.65 -0.25 0 -0.75 -0.15 -1.15 -0.30 -0.45 -0.15 -0.90 0.10 -1.05 0.65 -0.20 0.50 -0.80 1.45 -1.35 2.15 l-1.05 1.25 1 -1.75 c0.50 -0.95 2.15 -3.95 3.60 -6.60 1.50 -2.70 2.95 -4.90 3.25 -4.90 0.30 0 0.90 0.60 1.30 1.40 0.40 0.75 1 1.60 1.30 1.85 0.80 0.65 2.65 5.85 2.65 7.45 0 1.05 0.50 2.60 1.95 6.05 1.40 3.25 2.55 6.45 2.55 7.05 0 0.40 0.25 0.70 0.50 0.70 0.30 0 0.50 0.70 0.50 1.60 0 1.50 0.75 4.35 3 11.40 0.50 1.50 1.15 4.10 1.50 5.75 0.35 1.65 1.15 4.40 1.80 6.15 0.65 1.70 1.20 3.35 1.20 3.60 0 0.30 1 3.25 2.25 6.55 1.25 3.30 2.25 6.55 2.25 7.25 0 0.70 0.45 2.10 0.95 3.10 0.50 1 1.20 2.85 1.50 4.10 1 4.05 1.70 6 2.15 6 0.20 0 0.40 0.70 0.40 1.50 0 0.85 0.20 1.50 0.40 1.50 0.55 0 2.35 3.95 3.65 8.20 0.75 2.40 1.35 3.50 2.05 3.70 1.25 0.30 2.75 3.30 3.15 6.35 0.65 5.10 0.30 4.75 4.55 4.75 2.40 0 3.65 0.20 3.45 0.50 -0.40 0.65 -14.70 0.65 -15.70 0.05z"/>
  <path d="M615.50 461.50 c2.90 -0.15 4.60 -0.35 3.75 -0.40 l-1.50 -0.10 1.35 -1.20 c1.70 -1.45 1.40 -1.80 -1.55 -1.80 -1.35 0 -3.10 -0.40 -4.15 -1 -3.15 -1.70 -9.40 -8.40 -9.40 -10.10 0 -0.40 -2.55 -3.20 -5.70 -6.25 -3.15 -3.10 -6.10 -6.15 -6.55 -6.80 -0.45 -0.70 -1.40 -1.40 -2.10 -1.60 -0.70 -0.15 -1.15 -0.40 -1 -0.60 0.30 -0.30 -0.10 -0.85 -2.75 -3.80 -1.05 -1.15 -1.90 -2.35 -1.90 -2.70 0 -1.05 -1.15 -3.15 -1.75 -3.15 -0.30 0 -1.45 -1.15 -2.50 -2.60 -1.10 -1.40 -2.70 -3.40 -3.60 -4.35 -3.80 -4.30 -4.65 -5.35 -4.65 -5.70 0 -0.90 -3.80 -5.20 -5.55 -6.35 -1.45 -0.90 -1.90 -1.55 -2.15 -3.05 -0.30 -1.80 -0.80 -2.50 -3.05 -4.35 -0.45 -0.40 -0.90 -1.35 -1.10 -2.10 -0.15 -0.80 -0.80 -1.80 -1.45 -2.25 -0.65 -0.40 -1.20 -1.20 -1.20 -1.80 0 -2.05 -3 -1.60 -5.15 0.80 -0.95 1 0.65 -2.10 4.05 -8.10 2.85 -5 3.10 -4.90 13.40 5.50 10.65 10.75 22.10 22.95 28.50 30.45 1.35 1.55 4.50 5.10 6.95 7.90 2.50 2.80 6.30 7.30 8.50 10 11.55 14.25 15.35 19.05 17.35 22 1.80 2.65 2.50 3.30 3.95 3.55 0.95 0.20 -4.15 0.30 -11.30 0.30 -8.85 -0.05 -11.30 -0.15 -7.75 -0.35z"/>
  <path d="M757.50 372.20 c0 -0.10 0.35 -1.05 0.75 -2.05 0.95 -2.25 0.95 -2.70 -0.05 -2.30 -0.50 0.20 -0.85 -0.05 -1.05 -0.80 -0.15 -0.55 -0.50 -1.05 -0.75 -1.05 -0.25 0 -0.35 -0.20 -0.20 -0.40 0.40 -0.65 -1.60 -3.60 -2.45 -3.60 -0.40 0 -0.75 -0.30 -0.75 -0.65 0 -0.90 -1.80 -2.55 -2.40 -2.15 -0.25 0.15 -1.85 -1.10 -3.55 -2.75 -2.45 -2.30 -3.15 -3.30 -3.15 -4.50 -0.05 -1.10 -0.35 -1.65 -1.15 -1.95 -0.60 -0.25 -1.55 -0.95 -2.05 -1.60 -0.55 -0.65 -2.40 -2.40 -4.15 -3.90 -3.75 -3.20 -7 -6.60 -8.05 -8.35 -1 -1.75 -2.75 -3.50 -4.40 -4.40 -0.75 -0.45 -2 -1.20 -2.85 -1.75 -2.05 -1.30 -2.95 -1.20 -3.75 0.25 -0.35 0.70 -0.75 1.15 -0.85 1.05 -0.20 -0.15 2.20 -4.55 5.95 -10.90 1.10 -1.90 2.35 -3.40 2.70 -3.40 0.40 0 0.70 -0.20 0.70 -0.50 0 -0.70 2.80 -0.65 4.15 0.10 0.60 0.30 2 1.50 3.15 2.60 1.10 1.15 3.15 3.05 4.50 4.30 1.35 1.25 3 3.10 3.65 4.20 0.70 1.10 1.90 2.20 2.90 2.60 2.05 0.90 4.15 2.65 4.15 3.55 0 0.35 0.25 0.65 0.55 0.65 0.30 0 1.15 0.60 1.85 1.40 0.75 0.75 2.05 1.90 2.85 2.60 0.85 0.70 1.75 1.80 2.05 2.50 0.30 0.70 1.20 1.60 2 2 0.80 0.40 2.15 1.25 3 1.85 0.85 0.65 1.80 1.15 2.10 1.15 0.30 0 1.05 0.75 1.65 1.65 1.30 1.80 2.90 3.35 3.55 3.35 0.20 0 0.40 0.85 0.40 1.90 0 1.30 -0.80 3.25 -2.65 6.60 -5.30 9.50 -7.10 12.50 -7.70 12.70 -0.35 0.15 -0.65 0.15 -0.65 0z"/>
  <path d="M508.40 351.80 c-0.15 -0.65 -0.05 -1.60 0.15 -2.20 0.40 -1.10 -1.60 -5.45 -2.90 -6.25 -0.35 -0.20 -0.65 -0.90 -0.65 -1.55 0 -0.65 -0.35 -1.45 -0.80 -1.85 -1.25 -1 -3.50 -4.60 -3.45 -5.45 0.05 -0.40 -0.15 -1 -0.35 -1.30 -0.60 -0.80 -0.30 -3.70 0.35 -3.70 0.55 0 9.95 6.70 11.60 8.25 0.55 0.55 1.60 1.50 2.35 2.05 0.75 0.65 1.20 1.45 1.10 2 -0.30 1.45 -5.80 10.60 -6.55 10.85 -0.40 0.20 -0.75 -0.15 -0.85 -0.85z"/>
  <path d="M538.20 300.25 c-0.20 -0.90 -0.65 -1.25 -1.50 -1.25 -0.65 0 -1.65 -0.40 -2.20 -0.85 -0.55 -0.50 -1.75 -1.35 -2.65 -1.90 -3.65 -2.20 -6.25 -4.15 -8.80 -6.65 -1.50 -1.45 -3 -2.60 -3.35 -2.60 -0.35 0 -2.15 -1.15 -4 -2.60 -1.85 -1.40 -6.30 -4.35 -9.90 -6.50 -3.60 -2.20 -7.15 -4.40 -7.85 -4.90 -0.70 -0.50 -2.25 -1.20 -3.40 -1.55 -1.75 -0.50 -2.20 -0.50 -2.55 0 -0.20 0.40 -0.65 0.50 -0.95 0.35 -0.40 -0.25 0.05 -1.45 1.25 -3.70 1.05 -1.85 2.05 -3.55 2.25 -3.80 0.45 -0.50 4.60 1 6.90 2.55 0.95 0.65 2.25 1.30 2.90 1.45 0.65 0.20 1.15 0.45 1.15 0.65 0 0.20 0.85 0.75 1.90 1.25 3.45 1.65 9.75 5.90 17.60 11.95 1.50 1.15 3.55 2.45 4.50 2.90 1 0.45 2.65 1.80 3.65 3 1.05 1.20 2.80 2.65 3.95 3.20 1.40 0.70 2.40 1.70 3.30 3.40 l1.30 2.40 -1.20 2.25 c-1.40 2.50 -1.85 2.70 -2.30 0.95z"/>
  <path d="M666.20 297.90 c-0.35 -1.20 -0.90 -1.70 -2.35 -2.20 -1.05 -0.35 -2.85 -1.40 -4 -2.35 -1.15 -0.95 -2.85 -2.15 -3.80 -2.65 -0.95 -0.50 -2.75 -2 -4 -3.25 -1.25 -1.30 -2.85 -2.60 -3.50 -2.95 -1.70 -0.85 -6.85 -4.70 -9.55 -7.10 -5.45 -4.80 -9.30 -8.30 -11.55 -10.55 -2.25 -2.15 -2.55 -2.30 -3.55 -1.75 -0.65 0.35 -1.35 0.90 -1.55 1.15 -0.85 1 -0.05 -0.70 2.65 -5.70 1.45 -2.75 3 -5.05 3.30 -5.05 0.35 0 1.40 0.65 2.30 1.50 0.90 0.80 2.10 1.50 2.70 1.50 1.20 0 2.45 0.85 8.25 5.65 2.30 1.90 4.85 3.75 5.65 4.20 0.85 0.45 2.90 2.20 4.55 3.90 1.65 1.70 4 3.65 5.20 4.30 1.95 1.05 2.70 2 5.65 7.20 1.90 3.30 4.25 7.50 5.20 9.35 1.65 3.30 1.70 3.40 0.80 4.75 -1.15 1.90 -1.90 1.90 -2.40 0.05z"/>
 </g>
 <g fill="#b5b3f0">
  <path d="M628.70 562.90 c-1.50 -2.50 -1.95 -3.75 -2.10 -6.10 -0.15 -1.65 -0.65 -3.80 -1.20 -4.70 -0.50 -0.95 -0.90 -1.80 -0.80 -1.85 1.90 -1.65 7.05 -5.25 7.55 -5.25 1.10 0 1.85 2.30 1.85 5.80 0 3.15 1.25 7.20 2.50 7.95 0.25 0.15 0.50 0.75 0.50 1.30 0 0.50 0.90 1.85 2 2.95 1.15 1.15 1.90 2.25 1.75 2.50 -0.20 0.30 -2.50 0.50 -5.20 0.50 l-4.90 0 -1.95 -3.10z"/>
  <path d="M599.30 560 c-0.50 -1.10 -1.35 -2.40 -1.85 -2.95 -0.55 -0.55 -0.95 -1.25 -0.95 -1.50 0 -0.30 -0.65 -1.65 -1.50 -2.95 -0.80 -1.35 -1.50 -2.70 -1.50 -2.95 0 -0.25 -0.30 -1.15 -0.70 -1.95 -0.40 -0.80 -0.80 -1.80 -0.85 -2.20 -0.20 -0.90 6.95 -14 7.60 -14 0.60 0 0.55 0.35 -0.10 1.60 -0.45 0.80 -0.30 1.60 0.75 3.90 0.70 1.60 1.30 3.15 1.30 3.50 0 0.35 0.70 2.15 1.55 3.95 0.90 1.80 2 4.25 2.50 5.45 0.50 1.15 1.15 2.10 1.45 2.10 0.25 0 0.50 0.30 0.50 0.65 0 1.35 3.15 3.60 4.85 3.50 1.30 -0.05 1.65 0.15 1.65 0.90 0 1.60 -7.80 4.90 -11.75 4.95 -1.85 0 -2.10 -0.15 -2.95 -2z"/>
  <path d="M476.50 455.05 c-0.25 -0.55 -0.50 -1.35 -0.50 -1.75 0 -0.40 -0.45 -1 -0.95 -1.30 -0.80 -0.40 -2.50 -4.30 -3.25 -7.60 -0.30 -1.20 -1.85 -4.10 -2.40 -4.45 -0.30 -0.20 -0.55 -0.90 -0.55 -1.65 -0.05 -0.70 -0.25 -1.30 -0.40 -1.30 -0.30 0 -1.05 -2.30 -2 -6 -0.30 -1.25 -1 -3.10 -1.50 -4.10 -0.50 -1 -0.95 -2.40 -0.95 -3.10 0 -0.70 -1 -3.95 -2.25 -7.25 -1.25 -3.30 -2.25 -6.25 -2.25 -6.50 0 -0.30 -0.65 -2.20 -1.50 -4.30 -0.80 -2.05 -1.45 -3.95 -1.40 -4.15 0.15 -0.65 -0.65 -4.30 -1.60 -7.10 -2.55 -8 -3.55 -11.65 -3.30 -12.30 0.15 -0.45 0.05 -0.60 -0.20 -0.45 -0.30 0.15 -0.50 -0.10 -0.50 -0.65 0 -0.85 -1 -3.75 -2.55 -7.35 -1.45 -3.45 -1.95 -5 -1.95 -6.05 0 -1.60 -1.85 -6.80 -2.65 -7.45 -0.30 -0.30 -0.95 -1.20 -1.45 -2 l-0.80 -1.50 3.30 -5.85 c2.25 -3.95 3.65 -5.85 4.25 -5.90 0.45 0 0.85 0.30 0.85 0.65 0 0.30 1.30 4.75 2.95 9.85 1.65 5.10 4 12.65 5.30 16.75 1.25 4.15 2.85 9.10 3.50 11 0.65 1.95 1.75 6.30 2.50 9.75 0.75 3.45 1.65 6.95 2 7.75 0.55 1.25 3.70 12.75 5.30 19.25 2.15 8.85 4.60 20.50 5.45 26.25 0.60 3.85 1.15 7.60 1.30 8.40 0.35 1.65 -0.95 1.90 -1.80 0.40z"/>
  <path d="M562.50 384.55 c0 -0.20 -0.75 -1.20 -1.70 -2.20 -1.50 -1.60 -1.75 -1.70 -2.65 -1.10 -0.55 0.40 -1.15 0.55 -1.35 0.40 -0.15 -0.15 -0.30 0 -0.30 0.35 0 0.35 -0.15 0.55 -0.30 0.35 -0.35 -0.30 2.20 -4.85 2.75 -4.85 0.20 0 1.55 1.20 3 2.70 1.70 1.75 2.60 3 2.40 3.50 -0.15 0.40 -0.05 0.85 0.30 1 0.35 0.10 0 0.25 -0.75 0.25 -0.80 0.05 -1.40 -0.15 -1.40 -0.40z"/>
  <path d="M764.35 361.10 c-0.35 -0.50 0.95 -4.35 1.90 -5.80 0.80 -1.10 1 -2.80 0.35 -2.80 -0.65 0 -2.30 -1.60 -3.35 -3.15 -0.80 -1.20 -3 -2.60 -3.70 -2.35 -0.10 0.05 -0.40 -0.25 -0.65 -0.70 -0.25 -0.40 -1.25 -1.15 -2.20 -1.60 -1 -0.50 -2.05 -1.45 -2.35 -2.15 -0.35 -0.70 -1.25 -1.85 -2.10 -2.55 -0.80 -0.70 -2.10 -1.85 -2.85 -2.60 -0.70 -0.80 -1.55 -1.40 -1.85 -1.40 -0.30 0 -0.55 -0.30 -0.55 -0.65 0 -0.90 -2.10 -2.65 -4.15 -3.55 -1 -0.40 -2.20 -1.50 -2.90 -2.60 -0.65 -1.10 -2.30 -2.95 -3.65 -4.20 -1.35 -1.25 -3.40 -3.15 -4.50 -4.30 -2.25 -2.25 -4.30 -3.55 -4.30 -2.70 0 0.25 -0.40 0.50 -0.90 0.50 -0.50 0 -1.45 0.55 -2.10 1.25 -2.35 2.50 -1.85 0.60 1.35 -5.15 1.80 -3.20 4.50 -8.05 6 -10.70 1.50 -2.70 2.90 -4.90 3.10 -4.90 0.20 0 1.10 0.25 2 0.55 1.30 0.45 1.55 0.80 1.55 2.15 0 1.65 1 4.30 1.60 4.30 0.75 0 4 3.20 4.75 4.65 0.40 0.85 1.45 2.20 2.35 3.05 1.65 1.65 2.70 3.05 4.30 5.70 0.65 1 1.85 2 3.25 2.60 1.25 0.55 2.25 1.30 2.25 1.70 0 0.40 0.30 0.95 0.65 1.15 0.30 0.20 0.95 1.05 1.35 1.85 0.40 0.80 1.15 1.55 1.65 1.70 0.45 0.10 0.85 0.40 0.85 0.60 0 0.20 0.90 0.75 2 1.20 1.10 0.45 2 1 2 1.25 0 0.70 5.15 4.05 6.20 4.05 0.45 0 0.80 0.40 0.80 1 0 0.80 0.35 1 1.55 1 l1.55 0 -0.20 2.90 c-0.20 2.55 -0.80 3.85 -5.40 11.85 -5.95 10.40 -5.35 9.45 -5.65 8.85z"/>
  <path d="M539.65 294.25 c-0.25 -0.40 -1.65 -1.05 -3.10 -1.45 -2.20 -0.55 -3.05 -1.15 -4.70 -3.05 -1.15 -1.30 -2.85 -2.75 -3.85 -3.20 -0.95 -0.45 -3 -1.75 -4.50 -2.90 -7.85 -6.05 -14.15 -10.30 -17.60 -11.95 -1.05 -0.50 -1.90 -1.05 -1.90 -1.25 0 -0.20 -0.50 -0.45 -1.15 -0.65 -0.65 -0.15 -1.95 -0.80 -2.90 -1.40 -2.35 -1.60 -5.95 -2.95 -5.95 -2.30 0 0.30 -0.15 0.45 -0.30 0.30 -0.15 -0.15 0.35 -1.45 1.15 -2.85 1.65 -3 2.65 -3.20 6.75 -1.35 1.45 0.65 3.45 1.50 4.40 1.85 0.95 0.35 2.65 1.25 3.75 2 1.10 0.75 2.55 1.55 3.25 1.70 0.70 0.15 2.40 1.35 3.75 2.60 1.40 1.25 3.30 2.80 4.30 3.40 0.95 0.65 2.85 2.05 4.15 3.20 1.30 1.10 2.95 2.20 3.70 2.35 2.10 0.55 4.95 3.60 7.30 7.95 1.20 2.20 2.70 4.85 3.30 5.90 0.60 1 1 1.85 0.80 1.85 -0.15 0 -0.45 -0.35 -0.65 -0.75z"/>
  <path d="M662.90 285.25 c-0.30 -0.70 -0.80 -1.25 -1.10 -1.25 -0.30 -0.05 -1.45 -1.20 -2.55 -2.55 -1.10 -1.40 -2.90 -2.95 -4 -3.50 -1.10 -0.60 -3.35 -2.45 -5 -4.20 -1.65 -1.70 -3.70 -3.45 -4.55 -3.90 -0.80 -0.45 -3.35 -2.30 -5.65 -4.20 -5.80 -4.80 -7.05 -5.65 -8.25 -5.65 -0.60 0 -1.85 -0.75 -2.85 -1.65 l-1.80 -1.60 3.60 -6.50 c3.60 -6.45 4.70 -7.60 5.90 -6.10 0.35 0.40 1.60 1.10 2.85 1.55 2 0.75 2.50 1.30 4.45 4.70 6.60 11.65 9.05 16 12.55 22.35 2.10 3.85 4.70 8.50 5.70 10.40 1.05 1.85 1.75 3.35 1.60 3.35 -0.20 0 -0.60 -0.55 -0.90 -1.25z"/>
 </g>
 <g fill="#c4c2f1">
  <path d="M625.20 564.15 c-0.80 -1.05 -1.65 -2.10 -1.95 -2.40 -1.05 -0.95 -3.75 -5.30 -3.75 -6.05 0 -0.35 -0.45 -0.70 -1 -0.70 -0.55 0 -1 -0.20 -1 -0.50 0 -0.50 7.40 -5 8.35 -5 0.95 0 2.15 3 2.15 5.50 0 1.30 0.15 2.50 0.35 2.70 0.20 0.15 0.40 0.60 0.45 0.95 0.10 0.80 3.35 6.05 3.85 6.25 1.10 0.50 -0.60 1.10 -3.15 1.10 -2.85 0 -3 -0.10 -4.30 -1.85z"/>
  <path d="M593 562.35 c0 -0.85 -0.35 -1.40 -0.95 -1.60 -0.55 -0.15 -1.15 -0.70 -1.30 -1.20 -0.15 -0.50 -0.85 -1.20 -1.55 -1.60 -1.35 -0.70 -2.20 -2.25 -2.20 -4 0 -1.15 4.65 -9.50 6 -10.70 0.90 -0.80 0.90 -0.80 0.65 0.20 -0.15 0.55 0.10 1.70 0.55 2.60 0.45 0.90 0.80 1.85 0.80 2.10 0 0.25 0.70 1.60 1.50 2.95 0.85 1.30 1.50 2.75 1.50 3.10 0 0.40 0.20 0.80 0.45 0.90 0.55 0.20 3.30 4.55 3.15 5.05 -0.05 0.20 0.35 0.35 0.90 0.35 1.40 0 1.30 1.80 -0.10 2.20 -0.65 0.15 -3 0.45 -5.25 0.60 l-4.15 0.35 0 -1.30z"/>
  <path d="M465.35 402.35 c-0.40 -1.45 -0.05 -2.55 0.60 -2.10 0.25 0.10 0.55 0.70 0.70 1.25 0.15 0.55 0.05 0.90 -0.15 0.75 -0.25 -0.15 -0.50 0.15 -0.60 0.60 -0.15 0.65 -0.30 0.50 -0.55 -0.50z"/>
  <path d="M772 346.30 c0 -0.20 0.25 -0.85 0.55 -1.40 0.30 -0.55 0.65 -1.50 0.75 -2.10 0.10 -0.55 0.30 -1.70 0.50 -2.50 0.30 -1.25 0.20 -1.40 -0.50 -1.15 -0.45 0.20 -1.15 0.50 -1.55 0.65 -0.55 0.25 -0.75 -0.05 -0.75 -1.25 0 -1.10 -0.25 -1.55 -0.80 -1.55 -1.05 0 -6.20 -3.35 -6.20 -4.05 0 -0.25 -0.90 -0.80 -2 -1.25 -1.10 -0.45 -2 -1 -2 -1.25 0 -0.25 -0.30 -0.45 -0.70 -0.45 -0.65 0 -2.30 -2 -2.35 -2.85 0 -0.25 -0.35 -0.60 -0.75 -0.80 -0.40 -0.20 -0.70 -0.70 -0.70 -1.10 0 -0.75 -1.90 -2 -2.35 -1.60 -0.40 0.40 -2.65 -1.75 -3.45 -3.30 -0.95 -1.75 -2 -3.15 -4 -5.10 -0.90 -0.85 -1.95 -2.25 -2.35 -3.10 -0.75 -1.45 -4 -4.65 -4.75 -4.65 -0.20 0 -0.65 -0.70 -1.05 -1.55 -0.50 -1.15 -0.80 -1.40 -1.10 -0.90 -0.30 0.50 -0.45 0.20 -0.45 -0.80 0 -0.85 0.25 -1.80 0.55 -2.10 0.35 -0.35 0.10 -0.70 -1 -1.05 -1.15 -0.40 -1.55 -0.40 -1.55 0 0 0.30 -0.15 0.45 -0.30 0.25 -0.15 -0.15 0.95 -2.40 2.45 -4.95 1.50 -2.55 3.50 -6 4.45 -7.65 2.10 -3.70 3.75 -4.25 5.20 -1.80 0.50 0.85 1.05 1.55 1.25 1.55 0.15 0 0.80 1 1.45 2.25 1.25 2.40 3.70 5.25 4.50 5.25 0.30 0 0.50 0.30 0.50 0.70 0 0.40 0.45 0.90 1 1.05 0.60 0.20 1 0.75 1 1.40 0 0.65 0.65 1.95 1.50 2.95 0.80 1 1.70 2.40 2 3.10 0.25 0.70 0.85 1.30 1.30 1.30 0.90 0 3.55 2.50 4.90 4.65 0.50 0.75 1.35 1.35 1.95 1.35 2 0 5.30 2.50 7.45 5.60 1.90 2.85 5.65 6.90 6.35 6.90 0.50 0 1.55 2.65 1.55 3.95 0 1.60 -8.10 16 -9.50 17 -0.55 0.35 -1 0.50 -1 0.35z"/>
  <path d="M533.10 285.40 c-1.55 -1.45 -3.10 -3 -3.45 -3.45 -0.35 -0.45 -1.25 -0.95 -2.05 -1.10 -0.85 -0.15 -2.55 -1.25 -3.90 -2.35 -1.30 -1.15 -3.20 -2.60 -4.15 -3.25 -1 -0.60 -2.90 -2.15 -4.30 -3.40 -1.35 -1.25 -3.05 -2.45 -3.75 -2.60 -0.70 -0.15 -2.15 -0.95 -3.25 -1.70 -1.10 -0.75 -2.80 -1.65 -3.75 -2 -0.95 -0.40 -2.75 -1.15 -4 -1.70 -1.25 -0.55 -2.80 -1.05 -3.50 -1.05 -1.50 -0.05 -1.50 -0.30 0.60 -3.95 1.60 -2.80 1.70 -2.90 3.40 -2.65 1 0.15 2.05 0.70 2.45 1.30 0.35 0.55 1.10 1 1.60 1 1.05 0 2.65 0.80 4.05 2.05 0.50 0.45 1.40 1 2.05 1.30 3.95 1.75 6.15 3.05 7.50 4.50 0.85 0.90 2.20 1.75 3 1.95 0.75 0.15 1.55 0.60 1.65 0.95 0.15 0.35 1.35 1.40 2.70 2.30 2.10 1.40 3 2.60 5.90 7.95 5.60 10.05 5.55 9.90 1.20 5.90z"/>
  <path d="M647 256.60 c0 -0.35 -0.30 -0.60 -0.60 -0.60 -0.65 -0.05 -2.80 -3.10 -3.95 -5.60 -0.55 -1.30 -2.55 -2.55 -6.05 -3.85 -0.80 -0.30 -1.40 -0.80 -1.40 -1.10 0 -0.30 -0.35 -0.45 -0.75 -0.25 -0.55 0.20 -0.30 -0.55 0.70 -2.35 0.80 -1.40 1.80 -2.65 2.20 -2.75 0.50 -0.10 2.30 2.60 5.55 8.20 2.65 4.60 4.70 8.50 4.55 8.60 -0.15 0.15 -0.25 0 -0.25 -0.30z"/>
 </g>
 <g fill="#ceccf2">
  <path d="M612.65 565.50 c-0.65 -0.25 -1.15 -0.80 -1.15 -1.25 0 -0.40 -0.20 -0.75 -0.50 -0.75 -0.25 0 -0.50 -0.35 -0.50 -0.80 0 -0.85 -1.80 -2.70 -2.60 -2.70 -0.20 0 -0.40 -0.25 -0.40 -0.50 0 -0.65 11.80 -6.50 13.05 -6.50 0.70 0 0.90 0.30 0.80 1.10 -0.20 1 1.85 4.60 3.65 6.40 0.40 0.45 1.30 1.60 2 2.65 0.70 1 1.45 1.85 1.65 1.85 0.25 0 0.25 0.25 0.10 0.50 -0.40 0.65 -14.55 0.60 -16.10 0z"/>
  <path d="M588.85 562.25 c-1.65 -2.05 -2.90 -2.25 -3.85 -0.50 -0.45 0.85 -1.10 1.25 -2.05 1.25 l-1.40 0 1.75 -3.25 c3.75 -6.95 4.95 -8.95 5.60 -9.15 0.55 -0.15 0.60 0 0.10 0.85 -0.85 1.65 -0.15 3.90 1.55 4.90 0.80 0.50 1.55 1.25 1.70 1.70 0.25 0.75 1.85 1.75 4 2.50 0.95 0.35 0.95 0.35 -0.10 0.40 -0.60 0.05 -1.25 0.30 -1.45 0.65 -0.25 0.40 0.20 0.45 1.70 0.20 1.30 -0.20 2.10 -0.10 2.10 0.20 0 0.25 -0.40 0.50 -0.95 0.50 -0.50 0 -1.20 0.35 -1.55 0.75 -0.40 0.50 -1.50 0.75 -3.20 0.75 -2.30 0 -2.70 -0.15 -3.95 -1.75z"/>
  <path d="M780.35 331.70 c-0.15 -0.15 -0.10 -0.80 0.15 -1.45 0.40 -1.10 -0.30 -3.75 -1.05 -3.75 -0.70 0 -4.45 -4.05 -6.35 -6.85 -2.25 -3.35 -6 -6.10 -6.70 -5 -0.30 0.45 -0.40 0.45 -0.40 0 0 -0.35 -0.30 -0.65 -0.70 -0.65 -0.35 0 -1.10 -0.60 -1.60 -1.35 -1.35 -2.15 -4 -4.65 -4.90 -4.65 -0.45 0 -1.05 -0.55 -1.30 -1.30 -0.50 -1.25 -3.30 -5.10 -4.25 -5.80 -0.30 -0.25 -0.25 -0.55 0.20 -0.85 0.55 -0.35 0.45 -0.50 -0.40 -0.80 -0.55 -0.15 -1.05 -0.70 -1.05 -1.10 0 -0.45 -0.15 -0.65 -0.30 -0.50 -0.50 0.50 -3.40 -2.90 -4.70 -5.45 -0.65 -1.20 -1.30 -2.20 -1.45 -2.20 -0.20 0 -0.75 -0.70 -1.25 -1.55 -0.85 -1.45 -0.95 -1.45 -2.10 -0.75 -1.10 0.75 -1.15 0.75 -0.80 -0.10 0.20 -0.45 1.15 -2.25 2.10 -4 1.65 -2.95 1.85 -3.10 3.60 -3.10 1.40 0 1.90 0.25 2.15 1 0.15 0.55 0.60 1 1 1 0.35 0 0.80 0.55 0.95 1.20 0.15 0.70 0.75 1.40 1.30 1.55 0.65 0.20 1 0.75 1 1.50 0 0.75 0.45 1.45 1.15 1.80 1.35 0.70 1.85 1.40 1.85 2.55 0 1.25 2 3.40 3.10 3.40 0.50 0 0.90 0.25 0.90 0.55 0 0.65 1.90 2.45 2.60 2.45 0.20 0 0.40 0.20 0.40 0.50 0 1.25 2.25 3 3.80 3 1.55 0 1.60 0.10 1.95 2.45 0.30 2.25 0.45 2.50 1.90 2.75 1.70 0.30 4.35 2.30 4.35 3.25 0 0.30 0.20 0.55 0.40 0.55 0.25 0 0.75 0.60 1.15 1.40 0.35 0.75 1.20 2 1.80 2.75 0.65 0.80 1.30 2 1.45 2.65 0.20 0.85 0.75 1.35 1.75 1.55 1.70 0.35 3.45 2.85 3.45 4.95 0 1.45 -3.70 8.70 -4.45 8.70 -0.20 0 -0.50 -0.15 -0.70 -0.30z"/>
  <path d="M528.50 276.10 c-0.40 -0.50 -2.05 -1.75 -3.60 -2.80 -1.55 -1.05 -2.95 -2.20 -3.10 -2.55 -0.10 -0.35 -0.90 -0.80 -1.65 -0.95 -0.80 -0.20 -2.15 -1.05 -3 -1.95 -1.35 -1.45 -3.55 -2.75 -7.50 -4.50 -0.65 -0.30 -1.55 -0.85 -2.05 -1.30 -1.40 -1.25 -3 -2.05 -4.05 -2.05 -0.50 0 -1.25 -0.50 -1.65 -1.05 -0.40 -0.65 -1.20 -1.10 -2.05 -1.10 -0.75 0.05 -1.35 -0.05 -1.35 -0.15 0 -0.10 0.80 -1.65 1.80 -3.45 1.55 -2.85 2 -3.25 3.25 -3.25 1.60 0 4.95 1.60 7.10 3.35 0.80 0.65 1.70 1.15 2.05 1.15 0.35 0 1.05 0.45 1.55 1 0.50 0.55 1.10 1 1.40 1 0.25 0 0.85 0.40 1.30 0.90 0.45 0.45 1.70 1.30 2.80 1.85 1.75 0.85 2.50 1.95 6.10 8.25 2.25 4 4.10 7.55 4.10 7.90 0.05 0.85 -0.55 0.75 -1.45 -0.30z"/>
 </g>
 <g fill="#dbd8f4">
  <path d="M580 565.55 c0 -0.20 0.55 -1.15 1.25 -2.10 0.65 -0.95 1.90 -2.90 2.80 -4.35 0.85 -1.40 1.75 -2.45 2 -2.30 0.60 0.35 0.60 0.50 -0.35 1.40 -0.70 0.75 -0.60 0.80 1.25 0.80 1.65 0 2.20 0.30 3.45 1.80 l1.50 1.80 3.90 -0.60 c2.20 -0.35 5.95 -1.25 8.35 -2.05 2.45 -0.80 4.75 -1.45 5.05 -1.45 0.95 0 2.80 1.75 2.80 2.70 0 0.45 0.25 0.80 0.50 0.80 0.30 0 0.50 0.35 0.50 0.75 0 0.45 0.40 0.95 0.90 1.10 1.15 0.45 2.10 1.45 1.75 1.85 -0.50 0.45 -35.65 0.35 -35.65 -0.15z"/>
  <path d="M783.20 325.45 c-0.15 -0.30 -0.10 -0.70 0.15 -0.90 1.20 -0.75 -0.85 -4.50 -2.55 -4.60 -0.55 -0.05 -1.20 -0.05 -1.40 0 -0.25 0 -0.40 -0.35 -0.40 -0.90 0 -0.50 -0.55 -1.65 -1.20 -2.60 -0.70 -0.95 -1.60 -2.45 -2.10 -3.30 -0.45 -0.90 -1 -1.65 -1.25 -1.65 -0.25 0 -0.45 -0.25 -0.45 -0.55 0 -0.75 -2.55 -2.95 -3.50 -3 -0.40 -0.05 -1.10 -0.10 -1.50 -0.15 -0.40 0 -0.80 -0.65 -0.90 -1.40 -0.10 -0.80 -0.40 -1.40 -0.65 -1.40 -0.25 0 -0.35 -0.55 -0.15 -1.25 0.30 -1.15 0.15 -1.25 -1.40 -1.25 -1.65 0 -3.90 -1.70 -3.90 -3 0 -0.30 -0.20 -0.50 -0.40 -0.50 -0.70 0 -2.60 -1.80 -2.60 -2.45 0 -0.30 -0.40 -0.55 -0.90 -0.55 -1.15 0 -3.20 -2.30 -3.35 -3.70 -0.05 -0.60 -0.15 -1.20 -0.20 -1.35 0 -0.20 -0.75 -0.60 -1.60 -0.95 -1.20 -0.55 -1.45 -0.85 -1.25 -1.75 0.20 -0.75 0.05 -1.25 -0.50 -1.45 -0.40 -0.15 -0.60 -0.10 -0.45 0.15 0.15 0.25 0.05 0.60 -0.20 0.75 -0.20 0.15 -0.55 -0.60 -0.75 -1.75 -0.15 -1.10 -0.50 -1.90 -0.70 -1.75 -0.50 0.30 -2.15 -1.50 -1.75 -1.90 0.20 -0.15 0.05 -0.30 -0.25 -0.30 -0.35 0 -0.60 0.25 -0.60 0.50 0 0.30 -0.45 0.50 -1 0.50 -0.55 0 -1 -0.25 -1 -0.55 0 -0.30 1.15 -2.60 2.55 -5.10 1.45 -2.55 4.35 -7.80 6.55 -11.75 3.70 -6.60 4.05 -7.10 5.45 -7.10 l1.45 0 0 3.50 c0 2.85 0.15 3.60 0.85 3.85 1.20 0.45 3.10 2.75 3.15 3.70 0 1.05 0.90 1.75 2.55 2.20 1.35 0.35 2.15 1.50 2.65 3.80 0.40 1.75 1.95 3.45 3.20 3.45 0.60 0 1.45 0.60 1.90 1.30 0.50 0.70 2.75 3.10 5 5.35 2.30 2.25 4.20 4.50 4.30 5.05 0.10 0.55 1.15 1.75 2.40 2.70 1.25 0.95 2.85 2.75 3.55 4.05 1 1.85 1.70 2.45 3.35 2.95 1.50 0.50 2.10 0.95 2.10 1.65 0 0.50 0.35 0.95 0.75 0.95 1.55 0 0.95 1.30 -8.65 18.15 -2.65 4.60 -3.60 5.55 -4.40 4.30z"/>
  <path d="M522.65 263.75 c-0.25 -0.40 -0.85 -0.80 -1.40 -0.90 -1.55 -0.30 -4.90 -2 -5.80 -2.95 -0.45 -0.50 -1.05 -0.90 -1.30 -0.90 -0.30 0 -0.90 -0.45 -1.40 -1 -0.50 -0.55 -1.20 -1 -1.55 -1 -0.35 0 -1.25 -0.50 -2.05 -1.15 -0.75 -0.65 -2.40 -1.65 -3.60 -2.30 -2.30 -1.15 -3.20 -0.95 -3.80 0.95 -0.35 1.05 -1.75 1.75 -1.75 0.85 0 -1.10 8.45 -15.60 9.10 -15.60 0.55 0 2.90 4 12.55 21.40 1.05 1.85 1.80 3.35 1.65 3.35 -0.15 0 -0.45 -0.35 -0.65 -0.75z"/>
 </g>
 <g fill="#eae7f7">
  <path d="M676.65 688.25 c-1.30 -1.40 -1.50 -3.85 -0.40 -4.75 0.95 -0.80 1.40 -0.45 3.75 3.05 l2.05 2.95 -2.15 -0.05 c-1.60 0 -2.45 -0.30 -3.25 -1.20z"/>
  <path d="M496.90 664.45 c-1.65 -0.85 -1.90 -1.20 -1.90 -2.70 0 -1.70 0.05 -1.75 2 -1.75 1.05 0 2.75 0.40 3.75 0.85 1.55 0.75 1.75 1.05 1.75 2.75 0 1.85 -0.05 1.90 -1.85 1.90 -1.05 -0.05 -2.75 -0.50 -3.75 -1.05z"/>
  <path d="M636.25 662.05 c-0.80 -0.15 -1.45 -0.50 -1.35 -0.70 0.05 -0.20 0.10 -0.80 0.10 -1.35 0 -1 0.35 -1 21.25 -1 l21.25 0 0 1.25 c0 0.90 -0.35 1.40 -1.30 1.75 -1.80 0.70 -2.70 0.60 -2.70 -0.25 0 -0.65 -2.30 -0.75 -17.50 -0.75 -15.20 0 -17.50 0.10 -17.50 0.75 0 0.40 -0.15 0.70 -0.35 0.70 -0.25 -0.05 -1.05 -0.20 -1.90 -0.40z"/>
  <path d="M596.50 632.30 c0 -0.65 0.15 -1.90 0.30 -2.75 0.25 -1.25 0.55 -1.55 1.40 -1.45 0.90 0.15 1.05 0.55 1.20 2.80 l0.15 2.60 -1.50 0 c-1.30 0 -1.55 -0.20 -1.55 -1.20z"/>
  <path d="M581 565.20 c0 -0.15 0.45 -0.85 1 -1.55 0.75 -0.95 1 -1.05 1 -0.45 0 0.45 0.40 0.80 0.90 0.85 4.25 0.20 7.95 0.45 11.10 0.85 3.35 0.40 2.75 0.45 -5.10 0.50 -4.90 0.05 -8.90 -0.05 -8.90 -0.20z"/>
  <path d="M795.50 305.05 c0 -0.30 -0.35 -0.40 -0.75 -0.25 -0.55 0.25 -0.75 -0.05 -0.75 -1 0 -0.70 -0.20 -1.30 -0.50 -1.30 -0.25 0 -0.60 0 -0.75 0 -1.15 0.05 -3.35 -1.85 -4.30 -3.75 -0.60 -1.20 -1.90 -2.80 -2.90 -3.45 -1 -0.65 -2.45 -1.80 -3.25 -2.50 -1.20 -1.10 -1.30 -1.30 -0.50 -1.30 0.65 0 -0.40 -1.30 -3.35 -4.25 -2.40 -2.30 -4.70 -4.80 -5.20 -5.55 -0.85 -1.30 -0.90 -1.35 -1.55 -0.45 -0.40 0.50 -0.70 0.65 -0.70 0.30 0 -0.30 -0.55 -1.15 -1.25 -1.85 -0.70 -0.70 -1.35 -1.85 -1.55 -2.60 -0.50 -2.40 -1.30 -3.55 -2.75 -3.85 -1.45 -0.35 -2.45 -1.25 -2.65 -2.40 -0.10 -0.80 -2.30 -3.70 -2.30 -3.05 0 0.25 -0.60 -0.20 -1.30 -1 -1.10 -1.15 -1.20 -1.50 -0.65 -1.85 0.60 -0.35 0.55 -0.45 -0.05 -0.45 -0.65 0 -0.65 -0.05 0 -0.50 0.60 -0.40 0.60 -0.60 0.10 -0.90 -0.45 -0.35 -0.50 -0.75 -0.15 -1.75 0.35 -0.85 0.35 -1.35 0.05 -1.35 -0.30 0 -0.50 0.25 -0.50 0.50 0 0.30 -0.35 0.50 -0.75 0.50 -0.40 0 -0.75 -0.10 -0.75 -0.25 0 -0.85 6.80 -12.25 7.30 -12.25 0.85 0 2.20 1.40 2.20 2.30 0 0.45 0.55 0.70 1.75 0.70 l1.70 0 0.35 3 c0.25 2.10 0.70 3.40 1.50 4.35 0.65 0.80 1.20 1.90 1.20 2.55 0 0.70 0.30 1.10 0.90 1.10 0.50 0 1.20 0.45 1.60 1 0.40 0.55 0.95 1 1.20 1 0.55 0 3.85 3.75 4.55 5.20 0.30 0.60 1 1.10 1.60 1.20 0.60 0.10 1.35 0.50 1.65 0.90 0.35 0.40 0.95 0.70 1.40 0.70 0.45 0 1.50 0.50 2.40 1.10 1.30 0.90 1.65 1.50 1.85 3.55 0.20 1.35 0.60 2.80 0.95 3.20 0.50 0.65 0.65 0.60 1 -0.30 0.20 -0.60 0.55 -1.05 0.80 -1.05 0.55 0 9.60 15.25 9.55 16.10 -0.05 1.05 -5.20 10.05 -5.85 10.30 -0.35 0.10 -0.60 -0.05 -0.60 -0.35z"/>
 </g>
 <g fill="#fcf6fd">
  <path d="M333.20 745.50 c-7.05 -0.90 -17.70 -3.80 -17.70 -4.85 0 -0.25 -0.55 -3.80 -1.20 -7.90 -0.70 -4.15 -1.35 -8.80 -1.55 -10.35 -0.30 -2.85 -0.30 -2.90 0.90 -2.90 1 0 1.95 0.95 4.75 4.90 4.25 5.95 10.60 12.05 14.40 13.85 6.95 3.30 16.40 2.60 21.55 -1.60 3.10 -2.45 4.70 -5.55 5 -9.35 0.35 -4.25 -0.40 -6.25 -3.65 -9.75 -3.20 -3.50 -6.75 -5.65 -17.20 -10.55 -4.25 -2 -9.25 -4.60 -11.10 -5.80 -4.35 -2.90 -8.45 -7.40 -10.50 -11.55 -1.40 -2.85 -1.70 -4.05 -1.85 -7.60 -0.25 -5.80 0.55 -8.80 3.40 -13.20 3.90 -6 9.30 -9.55 16.80 -11.20 4.85 -1.10 14.85 -1.10 20.50 0 7 1.35 11.25 2.50 11.30 3.05 0.05 0.50 0 16.40 -0.05 17.45 -0.05 1.20 -1.65 -0.10 -3.65 -3 -2.80 -4.15 -7.85 -9.30 -10.55 -10.90 -3.75 -2.15 -7.40 -2.90 -12.45 -2.50 -5.20 0.40 -7.95 1.45 -10.25 3.75 -3.55 3.50 -4.55 8.15 -2.65 12.25 0.50 1.10 2.45 3.45 4.35 5.20 3 2.75 5 3.90 15.95 9.30 7 3.40 13.90 7.15 15.65 8.50 5.55 4.20 8.80 9.45 9.70 15.70 0.90 6.45 -1 13.25 -5.15 18.20 -1.75 2.15 -9.15 7.85 -10.10 7.85 -0.35 0 -0.85 0.20 -1.10 0.40 -0.30 0.25 -1.50 0.70 -2.75 1.05 -1.25 0.35 -2.90 0.80 -3.75 1.05 -2.30 0.65 -13.10 1 -17.05 0.50z"/>
  <path d="M406.20 745.30 c-5.95 -1.45 -10.50 -5 -13.10 -10.25 l-1.35 -2.80 -0.15 -33.85 -0.15 -33.90 -4.95 0 c-3.80 0 -5 -0.15 -5 -0.65 0 -0.35 2.95 -2.65 6.55 -5.05 9.10 -6.15 11.25 -8.35 13.85 -14.45 1.15 -2.70 2.10 -5.35 2.10 -5.80 0 -1.25 1.20 -2.15 2.50 -1.95 1.05 0.15 1.05 0.35 1.05 10.15 0 5.50 0.10 10.60 0.25 11.40 l0.30 1.35 13.45 0 13.50 0 -0.15 2.40 -0.15 2.35 -13.50 0.15 -13.50 0.10 0.25 30.65 0.25 30.60 1.40 2.85 c1.60 3.30 4.05 5.40 7.55 6.55 4.25 1.45 10.15 0.85 14.15 -1.45 4.85 -2.80 4.90 -0.65 0.05 4.10 -6.90 6.70 -16.60 9.60 -25.20 7.50z"/>
  <path d="M473.50 745.05 c-7.95 -1.70 -13.85 -4.85 -19.10 -10.15 -5.20 -5.25 -8.15 -10.45 -10.50 -18.75 -1 -3.45 -1.15 -5.05 -1.15 -13.65 0 -11.25 0.45 -13.75 4.10 -21.50 4.05 -8.75 10.40 -15.55 18.55 -19.90 10.15 -5.40 23.30 -5.95 32.95 -1.40 11.45 5.45 17.55 14.40 18.90 27.95 l0.35 3.35 -28.80 0 -28.80 0 0 3.25 c0 17.25 5.15 28.70 15.30 34.10 6.05 3.15 9.15 3.80 17.45 3.50 6.35 -0.20 7.35 -0.35 10.60 -1.70 4.70 -2 7.80 -4 10.90 -7.15 1.55 -1.55 2.90 -2.50 3.60 -2.50 1.45 0 1.45 0.15 -0.40 3.45 -3.40 6 -9.75 12.85 -15.15 16.30 -3.50 2.20 -9.25 4.65 -12.35 5.25 -3.95 0.75 -11.70 0.55 -16.45 -0.45z m24.75 -63.55 c-0.05 -6.80 -1.30 -10.85 -4.60 -14.50 -2.80 -3.10 -5.05 -4.30 -9.55 -5.10 -3.85 -0.65 -7.40 -0.10 -11.40 1.70 -2.80 1.30 -8.45 7.20 -9.75 10.20 -1.25 3 -2.45 8.20 -2.45 11.10 l0 2.10 18.90 -0.10 18.85 -0.15 0 -5.25z m2.75 -17.90 c0 -0.60 -3.90 -2.35 -4.30 -1.95 -0.15 0.15 0.55 0.75 1.65 1.30 2.10 1.10 2.65 1.25 2.65 0.65z"/>
  <path d="M791.45 745.30 c-3.50 -1 -7.35 -3.30 -9.30 -5.55 -6.75 -7.85 -6.70 -18.95 0.20 -26.30 5.45 -5.80 12.55 -9.25 30.15 -14.65 5.10 -1.60 10 -3.10 10.90 -3.35 l1.60 -0.55 0 -7.80 c-0.05 -10.55 -1.10 -13.30 -6.40 -16.80 -4.70 -3.10 -6.95 -3.55 -14.75 -2.90 -3.80 0.30 -7.50 0.85 -8.45 1.25 -0.90 0.45 -2.65 1.20 -3.90 1.75 -1.25 0.50 -3.65 2 -5.40 3.35 -4.65 3.50 -5.85 2.45 -2.25 -2 4.90 -6 10.45 -10.25 16.35 -12.55 6.35 -2.50 19.80 -2.85 26.30 -0.65 6.50 2.20 10.90 6.05 13.70 11.90 l1.55 3.30 0.25 28.75 c0.25 28.65 0.25 28.75 1.35 30.55 0.60 0.95 1.70 2.05 2.40 2.35 1.70 0.75 5.65 0.75 8.50 0 1.90 -0.50 2.40 -0.50 2.75 0.05 0.20 0.40 0.30 0.95 0.20 1.25 -0.40 0.85 -4.75 4.10 -7.20 5.35 -1.25 0.60 -2.65 1.45 -3.15 1.85 -1.40 1.20 -12.05 1.15 -14.30 -0.05 -2.40 -1.35 -4.95 -4.25 -5.65 -6.45 -0.65 -2.20 -2.15 -2.55 -3.65 -0.90 -0.50 0.55 -1.30 1 -1.80 1 -0.50 0 -1.65 0.65 -2.55 1.45 -1.95 1.70 -7.50 4.55 -8.80 4.55 -0.50 0 -2.05 0.55 -3.40 1.25 -2.15 1.10 -3.05 1.25 -7.70 1.20 -2.90 0 -6.30 -0.35 -7.55 -0.65z m24.75 -10.40 c3.20 -0.80 7.35 -2.95 8.20 -4.35 0.75 -1.10 0.85 -3.25 1 -16.15 0.15 -14.10 0.10 -14.90 -0.75 -14.90 -1.50 0 -4.75 1.05 -7.90 2.50 -1.65 0.75 -4.25 1.90 -5.75 2.50 -1.50 0.60 -3.40 1.50 -4.25 2 -0.80 0.55 -2.45 1.40 -3.60 1.95 -3.10 1.45 -7.45 5.90 -8.10 8.30 -0.85 3.15 -0.65 8.20 0.40 10.55 3.05 6.70 11.70 9.90 20.75 7.60z"/>
  <path d="M188.35 743.65 c-0.20 -0.15 -0.35 -0.80 -0.35 -1.35 0 -0.85 0.50 -1.25 2.15 -1.70 4.90 -1.50 9.05 -6.25 14.05 -16.10 4.05 -8.10 8.55 -19.55 36.10 -92.50 4.55 -12.15 5.90 -14.50 7.25 -13.15 0.55 0.55 5.60 12.70 18.80 45.40 11.65 28.85 12.95 32.10 18.40 45 9.35 22.20 13.50 28.85 19.25 30.75 2.35 0.80 2.75 1.10 2.75 2.15 l0 1.25 -22.50 0.20 c-12.35 0.15 -22.80 0.15 -23.10 0.05 -0.85 -0.30 -0.85 -2.15 0 -2.35 0.30 -0.10 1.70 -0.50 3.10 -0.85 3.15 -0.80 6.05 -3.40 6.80 -6.05 0.90 -3.35 0.30 -5.15 -7.85 -24.75 l-2.95 -7.15 -20.85 0 -20.90 0 -0.75 1.90 c-0.45 1 -2.15 5.90 -3.85 10.80 -6 17.85 -4.60 22.10 8.50 25.60 0.40 0.10 0.60 0.75 0.50 1.55 l-0.15 1.40 -17.05 0.15 c-9.35 0.05 -17.15 -0.05 -17.35 -0.25z m69.35 -46.10 c0.25 -0.35 -6.40 -17.30 -14.15 -36.05 -4.25 -10.35 -4.15 -10.05 -5.15 -9.90 -1.05 0.15 -0.95 -0.10 -9.40 22.40 -2.40 6.45 -5.40 14.40 -6.65 17.60 -1.45 3.85 -2.05 5.95 -1.65 6.10 1.05 0.40 36.75 0.30 37 -0.15z"/>
  <path d="M528.65 743.20 c-0.50 -1.35 0.50 -2.30 3.10 -3 3.15 -0.75 4.95 -2.75 5.70 -6.15 0.35 -1.70 0.55 -11.50 0.55 -28.50 0 -28.90 -0.05 -29.50 -3.25 -32.60 -0.95 -0.95 -3.25 -2.50 -5.10 -3.50 -4.35 -2.30 -4.60 -3.30 -1.30 -5.05 4.05 -2.20 22.15 -7.25 24.45 -6.80 0.90 0.15 0.95 0.90 1.20 9.10 l0.25 8.90 3.35 -4.20 c8.70 -10.95 14.25 -14.75 21.15 -14.30 1.95 0.10 3.55 0.50 3.95 0.90 0.55 0.60 0.60 2.40 0.25 9.70 -0.25 4.90 -0.50 9 -0.60 9.15 -0.10 0.10 -1.90 -0.65 -4 -1.65 -5.10 -2.40 -8.50 -2.70 -13.15 -1.15 -4.40 1.45 -7 3.35 -9.20 6.60 l-1.75 2.60 -0.15 23.95 c-0.10 16.15 0.05 24.85 0.40 26.65 0.80 3.65 2.30 5.25 5.95 6.40 2.80 0.85 3.05 1.05 3.05 2.35 l0 1.40 -17.25 0 c-15.55 0 -17.30 -0.10 -17.60 -0.80z"/>
  <path d="M593.35 743.65 c-0.20 -0.15 -0.35 -0.85 -0.35 -1.50 0 -0.85 0.30 -1.15 1.15 -1.15 1.85 0 5.20 -1.85 6.40 -3.55 1.70 -2.40 2 -9.05 1.85 -36.20 -0.15 -22 -0.20 -23.65 -1.10 -25.45 -1.15 -2.25 -4.55 -5.05 -8.20 -6.75 -2.70 -1.25 -3.40 -2.75 -1.95 -3.95 1.85 -1.55 22.25 -7.60 25.60 -7.60 l1.10 0 0.25 30.40 c0.10 16.70 0.20 33.50 0.25 37.35 0.05 3.90 0.30 8 0.65 9.15 0.80 3.05 2.80 5.10 5.75 5.85 2 0.50 2.55 0.85 2.65 1.75 0.10 0.60 -0.10 1.35 -0.50 1.55 -0.75 0.50 -33.05 0.60 -33.55 0.10z"/>
  <path d="M634.20 743.25 c-0.50 -1.30 0.20 -2.20 2.05 -2.55 4.65 -0.85 10.60 -6.45 22.50 -21.15 3.85 -4.75 8.30 -10.20 9.85 -12.15 l2.85 -3.50 -1.75 -2.75 c-6.50 -10.15 -22.75 -32.60 -25.10 -34.70 -1.25 -1.05 -3.75 -2.70 -5.60 -3.60 -2.85 -1.40 -3.30 -1.80 -2.90 -2.50 0.40 -0.80 2.20 -0.85 20.10 -0.85 18.35 0 19.65 0.05 19.65 0.90 0 1.30 -0.80 2.10 -2.30 2.15 -1.90 0.05 -4.15 1.55 -4.70 3.10 -0.80 2.45 0.10 4.65 4.90 11.80 3.80 5.70 4.55 7.10 4 7.55 -0.60 0.50 -0.50 0.80 0.40 1.75 0.60 0.60 1.20 1.15 1.35 1.15 1.15 0 1.60 0.30 2.65 1.85 l1.20 1.80 2.20 -2.90 c1.15 -1.60 4.50 -5.80 7.35 -9.40 5.75 -7.20 7.60 -10.35 7.60 -13 0 -1.45 -0.30 -1.95 -1.60 -2.75 -0.90 -0.55 -2.95 -1.25 -4.50 -1.60 -2.50 -0.50 -2.90 -0.75 -2.90 -1.75 l0 -1.15 14.30 0 14.25 0 -0.30 1.15 c-0.40 1.30 -1.60 2.35 -2.75 2.35 -1.55 0 -3.85 1.50 -7.65 4.90 -3.80 3.35 -5.10 4.90 -16.95 19.75 l-6.35 7.95 0.85 1.35 c0.45 0.70 3.95 5.80 7.80 11.30 3.85 5.50 8.55 12.25 10.45 15 4.70 6.80 9.40 12.75 11.50 14.60 0.95 0.85 3 2.10 4.55 2.85 2 0.95 2.80 1.60 2.80 2.30 0 1 -0.45 1 -20 1 -19.65 0 -20 0 -20 -1 0 -0.55 0.35 -1 0.75 -1 0.40 0 1.15 -0.20 1.65 -0.45 0.45 -0.30 1.95 -0.90 3.30 -1.35 2.90 -1.05 3.75 -2.45 2.80 -4.70 -1.45 -3.55 -17.50 -26.45 -18.50 -26.50 -0.70 0 -2.25 1.90 -12.70 15.50 -6.05 7.90 -6.80 9.15 -6.80 11.40 0 2.70 0.70 3.35 5 4.80 3.20 1.05 3.75 1.40 3.75 2.40 l0 1.15 -14.40 0.15 c-12.45 0.10 -14.40 0 -14.65 -0.65z"/>
  <path d="M732.20 743.35 c-0.55 -1.40 0.15 -2.25 2.30 -2.85 2.65 -0.70 5.35 -3.15 6 -5.40 0.30 -1.15 0.50 -12.20 0.50 -29.35 0 -25.70 -0.10 -27.65 -0.95 -29.55 -1.10 -2.45 -4.35 -5.20 -8.15 -6.95 -4.95 -2.25 -4.40 -3.70 2.15 -6.10 5.80 -2.10 17.40 -5.10 20.55 -5.25 l2.35 -0.15 0.15 38 0.15 38 1.15 2.30 c1.15 2.40 3.55 4.05 6.75 4.70 1.05 0.20 1.35 0.55 1.35 1.50 l0 1.25 -7.90 0 c-4.40 0 -12 0.15 -17 0.35 -8.15 0.25 -9.10 0.20 -9.40 -0.50z"/>
  <path d="M604.75 641.05 c-3.80 -0.65 -6.10 -2.40 -7.50 -5.70 -1 -2.40 -1 -3.90 0 -3.55 0.90 0.35 1.05 -1.30 0.20 -2.15 -1.40 -1.40 2.10 -6.05 5.80 -7.70 2.20 -1.05 6.50 -1.25 9.30 -0.45 4.80 1.35 8.30 7.15 6.95 11.70 -0.85 2.95 -1.65 4 -4.75 6.30 -2.40 1.80 -3 2 -5.35 1.95 -1.45 -0.05 -3.55 -0.25 -4.65 -0.40z"/>
  <path d="M743.10 641 c-6 -1.45 -9.20 -7.75 -6.65 -13.25 1.95 -4.35 6 -6.75 11.10 -6.75 5.10 0.05 8.65 2.10 10.50 6.20 1.20 2.60 1.20 5.05 -0.05 7.55 -2.05 4.30 -4.60 6 -9.50 6.40 -2.05 0.15 -4.50 0.10 -5.40 -0.15z"/>
  <path d="M789.50 286 c-1.10 -1.10 -1.05 -3.35 0.05 -3.10 0.45 0.10 0.35 -0.15 -0.25 -0.80 -0.75 -0.90 -1.10 -1.75 -1.25 -3.20 -0.05 -0.25 -0.40 -0.40 -0.80 -0.40 -0.45 0 -0.60 -0.30 -0.45 -0.75 0.20 -0.55 -0.05 -0.75 -0.85 -0.80 -0.65 0 -0.90 -0.15 -0.55 -0.30 0.30 -0.10 0.45 -0.45 0.30 -0.75 -0.20 -0.30 -0.05 -0.45 0.35 -0.30 0.40 0.15 1 0.75 1.30 1.45 0.55 1.05 0.65 1.10 0.65 0.20 0 -1.10 -3.15 -3.55 -3.90 -3.05 -0.25 0.15 -0.85 -0.15 -1.35 -0.70 -0.50 -0.55 -1.05 -0.85 -1.25 -0.75 -0.45 0.30 -3.05 -1.65 -2.85 -2.15 0.15 -0.60 -3.40 -4.60 -4.05 -4.60 -0.35 0 -0.60 -0.20 -0.60 -0.50 0 -0.25 -0.35 -0.50 -0.80 -0.50 -0.40 0 -0.60 -0.20 -0.45 -0.50 0.15 -0.25 -0.05 -0.50 -0.55 -0.50 -0.45 0 -1.15 -0.40 -1.50 -0.85 -0.80 -1.10 -0.90 -1.85 -0.15 -1.40 0.30 0.20 0.25 -0.10 -0.10 -0.65 -0.35 -0.60 -1.05 -1.15 -1.55 -1.25 -0.75 -0.20 -0.90 -0.70 -0.85 -2.85 0.10 -1.65 -0.10 -2.75 -0.55 -3 -0.50 -0.30 -0.50 -0.45 0.05 -0.65 0.40 -0.15 0.10 -0.30 -0.65 -0.30 -0.80 -0.05 -1.40 0.20 -1.40 0.55 0 0.30 -0.30 0.15 -0.70 -0.35 -0.40 -0.55 -0.60 -1.15 -0.50 -1.35 0.15 -0.25 0 -0.40 -0.35 -0.40 -0.35 0 -0.45 -0.15 -0.30 -0.35 0.20 -0.15 0 -0.55 -0.40 -0.85 -0.60 -0.45 -0.25 -1.40 2.20 -5.80 1.60 -2.90 3.20 -5.25 3.55 -5.25 0.65 0 2.55 3.10 14.15 23 10.30 17.70 10.30 17.70 10.15 19.10 -0.15 1.35 0.65 2.65 1.65 2.65 0.30 0 0.55 0.25 0.55 0.55 0 0.30 -0.45 0.45 -1 0.30 -0.60 -0.15 -0.85 -0.05 -0.70 0.25 0.35 0.60 -1.25 1.85 -2.40 1.90 -0.50 0 -1.35 -0.45 -1.90 -1z"/>
 </g>
</svg>